<?xml version="1.0" encoding="UTF-8" standalone="no"?>
<svg
   xmlns:dc="http://purl.org/dc/elements/1.1/"
   xmlns:cc="http://creativecommons.org/ns#"
   xmlns:rdf="http://www.w3.org/1999/02/22-rdf-syntax-ns#"
   xmlns:svg="http://www.w3.org/2000/svg"
   xmlns="http://www.w3.org/2000/svg"
   viewBox="0 0 816 1056"
   height="1056"
   width="816"
   xml:space="preserve"
   id="svg2"
   version="1.1"><metadata
     id="metadata8"><rdf:RDF><cc:Work
         rdf:about=""><dc:format>image/svg+xml</dc:format><dc:type
           rdf:resource="http://purl.org/dc/dcmitype/StillImage" /></cc:Work></rdf:RDF></metadata><defs
     id="defs6"><clipPath
       id="clipPath18"
       clipPathUnits="userSpaceOnUse"><path
         style="clip-rule:evenodd"
         id="path16"
         d="M 9.12e-6,0 H 612.00001 V 792 H 9.12e-6 Z" /></clipPath><clipPath
       id="clipPath30"
       clipPathUnits="userSpaceOnUse"><path
         style="clip-rule:evenodd"
         id="path28"
         d="M 9.12e-6,0 H 612.00001 V 792 H 9.12e-6 Z" /></clipPath><clipPath
       id="clipPath42"
       clipPathUnits="userSpaceOnUse"><path
         style="clip-rule:evenodd"
         id="path40"
         d="M 9.12e-6,0 H 612.00001 V 792 H 9.12e-6 Z" /></clipPath><clipPath
       id="clipPath50"
       clipPathUnits="userSpaceOnUse"><path
         style="clip-rule:evenodd"
         id="path48"
         d="M 9.12e-6,0 H 612.00001 V 792 H 9.12e-6 Z" /></clipPath><clipPath
       id="clipPath62"
       clipPathUnits="userSpaceOnUse"><path
         style="clip-rule:evenodd"
         id="path60"
         d="M 9.12e-6,0 H 612.00001 V 792 H 9.12e-6 Z" /></clipPath><clipPath
       id="clipPath74"
       clipPathUnits="userSpaceOnUse"><path
         style="clip-rule:evenodd"
         id="path72"
         d="M 9.12e-6,0 H 612.00001 V 792 H 9.12e-6 Z" /></clipPath><clipPath
       id="clipPath86"
       clipPathUnits="userSpaceOnUse"><path
         style="clip-rule:evenodd"
         id="path84"
         d="M 9.12e-6,0 H 612.00001 V 792 H 9.12e-6 Z" /></clipPath><clipPath
       id="clipPath98"
       clipPathUnits="userSpaceOnUse"><path
         style="clip-rule:evenodd"
         id="path96"
         d="M 9.12e-6,0 H 612.00001 V 792 H 9.12e-6 Z" /></clipPath><clipPath
       id="clipPath110"
       clipPathUnits="userSpaceOnUse"><path
         style="clip-rule:evenodd"
         id="path108"
         d="M 9.12e-6,0 H 612.00001 V 792 H 9.12e-6 Z" /></clipPath><clipPath
       id="clipPath122"
       clipPathUnits="userSpaceOnUse"><path
         style="clip-rule:evenodd"
         id="path120"
         d="M 9.12e-6,0 H 612.00001 V 792 H 9.12e-6 Z" /></clipPath><clipPath
       id="clipPath134"
       clipPathUnits="userSpaceOnUse"><path
         style="clip-rule:evenodd"
         id="path132"
         d="M 9.12e-6,0 H 612.00001 V 792 H 9.12e-6 Z" /></clipPath><clipPath
       id="clipPath146"
       clipPathUnits="userSpaceOnUse"><path
         style="clip-rule:evenodd"
         id="path144"
         d="M 9.12e-6,0 H 612.00001 V 792 H 9.12e-6 Z" /></clipPath><clipPath
       id="clipPath158"
       clipPathUnits="userSpaceOnUse"><path
         style="clip-rule:evenodd"
         id="path156"
         d="M 9.12e-6,0 H 612.00001 V 792 H 9.12e-6 Z" /></clipPath><clipPath
       id="clipPath170"
       clipPathUnits="userSpaceOnUse"><path
         style="clip-rule:evenodd"
         id="path168"
         d="M 9.12e-6,0 H 612.00001 V 792 H 9.12e-6 Z" /></clipPath><clipPath
       id="clipPath182"
       clipPathUnits="userSpaceOnUse"><path
         style="clip-rule:evenodd"
         id="path180"
         d="M 9.12e-6,0 H 612.00001 V 792 H 9.12e-6 Z" /></clipPath><clipPath
       id="clipPath194"
       clipPathUnits="userSpaceOnUse"><path
         style="clip-rule:evenodd"
         id="path192"
         d="M 9.12e-6,0 H 612.00001 V 792 H 9.12e-6 Z" /></clipPath><clipPath
       id="clipPath206"
       clipPathUnits="userSpaceOnUse"><path
         style="clip-rule:evenodd"
         id="path204"
         d="M 9.12e-6,0 H 612.00001 V 792 H 9.12e-6 Z" /></clipPath><clipPath
       id="clipPath218"
       clipPathUnits="userSpaceOnUse"><path
         style="clip-rule:evenodd"
         id="path216"
         d="M 9.12e-6,0 H 612.00001 V 792 H 9.12e-6 Z" /></clipPath><clipPath
       id="clipPath230"
       clipPathUnits="userSpaceOnUse"><path
         style="clip-rule:evenodd"
         id="path228"
         d="M 9.12e-6,0 H 612.00001 V 792 H 9.12e-6 Z" /></clipPath><clipPath
       id="clipPath242"
       clipPathUnits="userSpaceOnUse"><path
         style="clip-rule:evenodd"
         id="path240"
         d="M 9.12e-6,0 H 612.00001 V 792 H 9.12e-6 Z" /></clipPath><clipPath
       id="clipPath254"
       clipPathUnits="userSpaceOnUse"><path
         style="clip-rule:evenodd"
         id="path252"
         d="M 9.12e-6,0 H 612.00001 V 792 H 9.12e-6 Z" /></clipPath><clipPath
       id="clipPath266"
       clipPathUnits="userSpaceOnUse"><path
         style="clip-rule:evenodd"
         id="path264"
         d="M 9.12e-6,0 H 612.00001 V 792 H 9.12e-6 Z" /></clipPath><clipPath
       id="clipPath278"
       clipPathUnits="userSpaceOnUse"><path
         style="clip-rule:evenodd"
         id="path276"
         d="M 9.12e-6,0 H 612.00001 V 792 H 9.12e-6 Z" /></clipPath><clipPath
       id="clipPath290"
       clipPathUnits="userSpaceOnUse"><path
         style="clip-rule:evenodd"
         id="path288"
         d="M 9.12e-6,0 H 612.00001 V 792 H 9.12e-6 Z" /></clipPath><clipPath
       id="clipPath302"
       clipPathUnits="userSpaceOnUse"><path
         style="clip-rule:evenodd"
         id="path300"
         d="M 9.12e-6,0 H 612.00001 V 792 H 9.12e-6 Z" /></clipPath><clipPath
       id="clipPath314"
       clipPathUnits="userSpaceOnUse"><path
         style="clip-rule:evenodd"
         id="path312"
         d="M 9.12e-6,0 H 612.00001 V 792 H 9.12e-6 Z" /></clipPath><clipPath
       id="clipPath326"
       clipPathUnits="userSpaceOnUse"><path
         style="clip-rule:evenodd"
         id="path324"
         d="M 9.12e-6,0 H 612.00001 V 792 H 9.12e-6 Z" /></clipPath><clipPath
       id="clipPath338"
       clipPathUnits="userSpaceOnUse"><path
         style="clip-rule:evenodd"
         id="path336"
         d="M 9.12e-6,0 H 612.00001 V 792 H 9.12e-6 Z" /></clipPath><clipPath
       id="clipPath350"
       clipPathUnits="userSpaceOnUse"><path
         style="clip-rule:evenodd"
         id="path348"
         d="M 9.12e-6,0 H 612.00001 V 792 H 9.12e-6 Z" /></clipPath><clipPath
       id="clipPath362"
       clipPathUnits="userSpaceOnUse"><path
         style="clip-rule:evenodd"
         id="path360"
         d="M 9.12e-6,0 H 612.00001 V 792 H 9.12e-6 Z" /></clipPath><clipPath
       id="clipPath374"
       clipPathUnits="userSpaceOnUse"><path
         style="clip-rule:evenodd"
         id="path372"
         d="M 9.12e-6,0 H 612.00001 V 792 H 9.12e-6 Z" /></clipPath><clipPath
       id="clipPath386"
       clipPathUnits="userSpaceOnUse"><path
         style="clip-rule:evenodd"
         id="path384"
         d="M 9.12e-6,0 H 612.00001 V 792 H 9.12e-6 Z" /></clipPath><clipPath
       id="clipPath398"
       clipPathUnits="userSpaceOnUse"><path
         style="clip-rule:evenodd"
         id="path396"
         d="M 9.12e-6,0 H 612.00001 V 792 H 9.12e-6 Z" /></clipPath><clipPath
       id="clipPath410"
       clipPathUnits="userSpaceOnUse"><path
         style="clip-rule:evenodd"
         id="path408"
         d="M 9.12e-6,0 H 612.00001 V 792 H 9.12e-6 Z" /></clipPath><clipPath
       id="clipPath422"
       clipPathUnits="userSpaceOnUse"><path
         style="clip-rule:evenodd"
         id="path420"
         d="M 9.12e-6,0 H 612.00001 V 792 H 9.12e-6 Z" /></clipPath><clipPath
       id="clipPath434"
       clipPathUnits="userSpaceOnUse"><path
         style="clip-rule:evenodd"
         id="path432"
         d="M 9.12e-6,0 H 612.00001 V 792 H 9.12e-6 Z" /></clipPath><clipPath
       id="clipPath446"
       clipPathUnits="userSpaceOnUse"><path
         style="clip-rule:evenodd"
         id="path444"
         d="M 9.12e-6,0 H 612.00001 V 792 H 9.12e-6 Z" /></clipPath><clipPath
       id="clipPath458"
       clipPathUnits="userSpaceOnUse"><path
         style="clip-rule:evenodd"
         id="path456"
         d="M 9.12e-6,0 H 612.00001 V 792 H 9.12e-6 Z" /></clipPath><clipPath
       id="clipPath470"
       clipPathUnits="userSpaceOnUse"><path
         style="clip-rule:evenodd"
         id="path468"
         d="M 9.12e-6,0 H 612.00001 V 792 H 9.12e-6 Z" /></clipPath><clipPath
       id="clipPath482"
       clipPathUnits="userSpaceOnUse"><path
         style="clip-rule:evenodd"
         id="path480"
         d="M 9.12e-6,0 H 612.00001 V 792 H 9.12e-6 Z" /></clipPath><clipPath
       id="clipPath494"
       clipPathUnits="userSpaceOnUse"><path
         style="clip-rule:evenodd"
         id="path492"
         d="M 9.12e-6,0 H 612.00001 V 792 H 9.12e-6 Z" /></clipPath><clipPath
       id="clipPath506"
       clipPathUnits="userSpaceOnUse"><path
         style="clip-rule:evenodd"
         id="path504"
         d="M 9.12e-6,0 H 612.00001 V 792 H 9.12e-6 Z" /></clipPath><clipPath
       id="clipPath518"
       clipPathUnits="userSpaceOnUse"><path
         style="clip-rule:evenodd"
         id="path516"
         d="M 9.12e-6,0 H 612.00001 V 792 H 9.12e-6 Z" /></clipPath><clipPath
       id="clipPath530"
       clipPathUnits="userSpaceOnUse"><path
         style="clip-rule:evenodd"
         id="path528"
         d="M 9.12e-6,0 H 612.00001 V 792 H 9.12e-6 Z" /></clipPath><clipPath
       id="clipPath542"
       clipPathUnits="userSpaceOnUse"><path
         style="clip-rule:evenodd"
         id="path540"
         d="M 9.12e-6,0 H 612.00001 V 792 H 9.12e-6 Z" /></clipPath><clipPath
       id="clipPath554"
       clipPathUnits="userSpaceOnUse"><path
         style="clip-rule:evenodd"
         id="path552"
         d="M 9.12e-6,0 H 612.00001 V 792 H 9.12e-6 Z" /></clipPath><clipPath
       id="clipPath566"
       clipPathUnits="userSpaceOnUse"><path
         style="clip-rule:evenodd"
         id="path564"
         d="M 9.12e-6,0 H 612.00001 V 792 H 9.12e-6 Z" /></clipPath><clipPath
       id="clipPath578"
       clipPathUnits="userSpaceOnUse"><path
         style="clip-rule:evenodd"
         id="path576"
         d="M 9.12e-6,0 H 612.00001 V 792 H 9.12e-6 Z" /></clipPath><clipPath
       id="clipPath590"
       clipPathUnits="userSpaceOnUse"><path
         style="clip-rule:evenodd"
         id="path588"
         d="M 9.12e-6,0 H 612.00001 V 792 H 9.12e-6 Z" /></clipPath><clipPath
       id="clipPath602"
       clipPathUnits="userSpaceOnUse"><path
         style="clip-rule:evenodd"
         id="path600"
         d="M 9.12e-6,0 H 612.00001 V 792 H 9.12e-6 Z" /></clipPath><clipPath
       id="clipPath614"
       clipPathUnits="userSpaceOnUse"><path
         style="clip-rule:evenodd"
         id="path612"
         d="M 9.12e-6,0 H 612.00001 V 792 H 9.12e-6 Z" /></clipPath><clipPath
       id="clipPath626"
       clipPathUnits="userSpaceOnUse"><path
         style="clip-rule:evenodd"
         id="path624"
         d="M 9.12e-6,0 H 612.00001 V 792 H 9.12e-6 Z" /></clipPath><clipPath
       id="clipPath638"
       clipPathUnits="userSpaceOnUse"><path
         style="clip-rule:evenodd"
         id="path636"
         d="M 9.12e-6,0 H 612.00001 V 792 H 9.12e-6 Z" /></clipPath><clipPath
       id="clipPath650"
       clipPathUnits="userSpaceOnUse"><path
         style="clip-rule:evenodd"
         id="path648"
         d="M 9.12e-6,0 H 612.00001 V 792 H 9.12e-6 Z" /></clipPath><clipPath
       id="clipPath662"
       clipPathUnits="userSpaceOnUse"><path
         style="clip-rule:evenodd"
         id="path660"
         d="M 9.12e-6,0 H 612.00001 V 792 H 9.12e-6 Z" /></clipPath><clipPath
       id="clipPath674"
       clipPathUnits="userSpaceOnUse"><path
         style="clip-rule:evenodd"
         id="path672"
         d="M 9.12e-6,0 H 612.00001 V 792 H 9.12e-6 Z" /></clipPath><clipPath
       id="clipPath686"
       clipPathUnits="userSpaceOnUse"><path
         style="clip-rule:evenodd"
         id="path684"
         d="M 9.12e-6,0 H 612.00001 V 792 H 9.12e-6 Z" /></clipPath><clipPath
       id="clipPath698"
       clipPathUnits="userSpaceOnUse"><path
         style="clip-rule:evenodd"
         id="path696"
         d="M 9.12e-6,0 H 612.00001 V 792 H 9.12e-6 Z" /></clipPath><clipPath
       id="clipPath710"
       clipPathUnits="userSpaceOnUse"><path
         style="clip-rule:evenodd"
         id="path708"
         d="M 9.12e-6,0 H 612.00001 V 792 H 9.12e-6 Z" /></clipPath><clipPath
       id="clipPath718"
       clipPathUnits="userSpaceOnUse"><path
         style="clip-rule:evenodd"
         id="path716"
         d="M 9.12e-6,0 H 612.00001 V 792 H 9.12e-6 Z" /></clipPath><clipPath
       id="clipPath730"
       clipPathUnits="userSpaceOnUse"><path
         style="clip-rule:evenodd"
         id="path728"
         d="M 9.12e-6,0 H 612.00001 V 792 H 9.12e-6 Z" /></clipPath></defs><g
     transform="matrix(1.3333333,0,0,-1.3333333,0,1056)"
     id="g10"><g
       id="g12"><g
         clip-path="url(#clipPath18)"
         id="g14"><text
           id="text22"
           style="font-variant:normal;font-weight:normal;font-size:10.56000042px;font-family:'Courier 10 Pitch';-inkscape-font-specification:CourierNewPSMT;writing-mode:lr-tb;fill:#000000;fill-opacity:1;fill-rule:nonzero;stroke:none"
           transform="matrix(1,0,0,-1,75.024,710.98)"><tspan
             id="tspan20"
             y="0"
             x="0 6.336 12.71424 18.9552 25.291201 31.55328 37.889278 44.15136 50.487358 56.749439 63.085442 69.347519 75.683517 81.945602 88.281601 94.543678 100.87968 107.14176 113.47776 119.73984 126.07584 132.45409 138.69504 145.03104 151.29312 157.62912 163.8912 170.2272 176.48927 182.82529 189.08736 195.42336 201.68544 208.02144 214.28352 220.61952 226.88161 233.21761 239.47968 245.81567 252.19392 258.43488 264.77087 271.03296 277.36896 283.63104 289.96704 296.22913 302.56512 308.82721 315.16321 321.42529 327.76129 334.02335 340.35938 346.62143 352.95743 359.21951 365.55551 371.93375">&lt;svg width=&quot;97&quot; height=&quot;15&quot; viewBox=&quot;0 0 97 15&quot; fill=&quot;none&quot; </tspan></text>
</g></g><g
       id="g24"><g
         clip-path="url(#clipPath30)"
         id="g26"><text
           id="text34"
           style="font-variant:normal;font-weight:normal;font-size:10.56000042px;font-family:'Courier 10 Pitch';-inkscape-font-specification:CourierNewPSMT;writing-mode:lr-tb;fill:#000000;fill-opacity:1;fill-rule:nonzero;stroke:none"
           transform="matrix(1,0,0,-1,75.024,699.1)"><tspan
             id="tspan32"
             y="0"
             x="0 6.336 12.71424 18.9552 25.291201 31.55328 37.889278 44.15136 50.487358 56.749439 63.085442 69.347519 75.683517 81.945602 88.281601 94.543678 100.87968 107.14176 113.47776 119.73984 126.07584 132.45409 138.69504 145.03104 151.29312 157.62912 163.8912 170.2272 176.48927 182.82529 189.08736 195.42336 201.68544 208.02144 214.28352">xmlns=&quot;http://www.w3.org/2000/svg&quot;&gt;</tspan></text>
</g></g><g
       id="g36"><g
         clip-path="url(#clipPath42)"
         id="g38" /></g><g
       id="g44"><g
         clip-path="url(#clipPath50)"
         id="g46"><text
           id="text54"
           style="font-variant:normal;font-weight:normal;font-size:10.56000042px;font-family:'Courier 10 Pitch';-inkscape-font-specification:CourierNewPSMT;writing-mode:lr-tb;fill:#000000;fill-opacity:1;fill-rule:nonzero;stroke:none"
           transform="matrix(1,0,0,-1,75.024,687.22)"><tspan
             id="tspan52"
             y="0"
             x="0 6.336 12.71424 18.9552 25.291201 31.55328 37.889278 44.15136 50.487358 56.749439">&lt;path fill</tspan></text>
</g></g><g
       id="g56"><g
         clip-path="url(#clipPath62)"
         id="g58"><text
           id="text66"
           style="font-variant:normal;font-weight:normal;font-size:10.56000042px;font-family:'Courier 10 Pitch';-inkscape-font-specification:CourierNewPSMT;writing-mode:lr-tb;fill:#000000;fill-opacity:1;fill-rule:nonzero;stroke:none"
           transform="matrix(1,0,0,-1,138.14,687.22)"><tspan
             id="tspan64"
             y="0"
             x="0">-</tspan></text>
</g></g><g
       id="g68"><g
         clip-path="url(#clipPath74)"
         id="g70"><text
           id="text78"
           style="font-variant:normal;font-weight:normal;font-size:10.56000042px;font-family:'Courier 10 Pitch';-inkscape-font-specification:CourierNewPSMT;writing-mode:lr-tb;fill:#000000;fill-opacity:1;fill-rule:nonzero;stroke:none"
           transform="matrix(1,0,0,-1,144.38,687.22)"><tspan
             id="tspan76"
             y="0"
             x="0 6.336 12.59808 18.93408 25.196159 31.53216 37.794239 44.130241 50.392319 56.728321 63.10656 69.347519 75.683517 81.945602 88.281601 94.543678 100.87968 107.14176 113.47776">rule=&quot;evenodd&quot; clip</tspan></text>
</g></g><g
       id="g80"><g
         clip-path="url(#clipPath86)"
         id="g82"><text
           id="text90"
           style="font-variant:normal;font-weight:normal;font-size:10.56000042px;font-family:'Courier 10 Pitch';-inkscape-font-specification:CourierNewPSMT;writing-mode:lr-tb;fill:#000000;fill-opacity:1;fill-rule:nonzero;stroke:none"
           transform="matrix(1,0,0,-1,264.17,687.22)"><tspan
             id="tspan88"
             y="0"
             x="0">-</tspan></text>
</g></g><g
       id="g92"><g
         clip-path="url(#clipPath98)"
         id="g94"><text
           id="text102"
           style="font-variant:normal;font-weight:normal;font-size:10.56000042px;font-family:'Courier 10 Pitch';-inkscape-font-specification:CourierNewPSMT;writing-mode:lr-tb;fill:#000000;fill-opacity:1;fill-rule:nonzero;stroke:none"
           transform="matrix(1,0,0,-1,270.53,687.22)"><tspan
             id="tspan100"
             y="0"
             x="0 6.2409601 12.57696 18.839041 25.175039 31.43712 37.773121 44.035198 50.371201 56.749439 62.990398 69.326401 75.588478 81.924477 88.186562 94.52256 100.78464 107.12064 113.38272 119.71872 125.9808 132.3168 138.57887 144.91489 151.17696 157.51295 163.77504 170.11104 176.48927 182.73024 189.06624 195.32832 201.66432 207.92641 214.26241 220.52448 226.86047">rule=&quot;evenodd&quot; d=&quot;M2.00185 0L8.28906 </tspan></text>
</g></g><g
       id="g104"><g
         clip-path="url(#clipPath110)"
         id="g106"><text
           id="text114"
           style="font-variant:normal;font-weight:normal;font-size:10.56000042px;font-family:'Courier 10 Pitch';-inkscape-font-specification:CourierNewPSMT;writing-mode:lr-tb;fill:#000000;fill-opacity:1;fill-rule:nonzero;stroke:none"
           transform="matrix(1,0,0,-1,75.024,675.34)"><tspan
             id="tspan112"
             y="0"
             x="0 6.336 12.71424 18.9552 25.291201 31.55328 37.889278 44.15136 50.487358 56.749439 63.085442 69.347519 75.683517 81.945602 88.281601 94.543678 100.87968 107.14176 113.47776 119.73984 126.07584 132.45409 138.69504 145.03104 151.29312 157.62912 163.8912 170.2272 176.48927 182.82529 189.08736 195.42336 201.68544 208.02144 214.28352 220.61952 226.88161 233.21761 239.47968 245.81567 252.19392 258.43488 264.77087 271.03296 277.36896 283.63104 289.96704 296.22913 302.56512 308.82721 315.16321 321.42529 327.76129 334.02335 340.35938 346.62143 352.95743 359.21951 365.55551 371.93375 378.17471 384.51071">12.5571L7.49834 14.1196L0.169678 0H2.00185ZM22.3871 0L15.1163 </tspan></text>
</g></g><g
       id="g116"><g
         clip-path="url(#clipPath122)"
         id="g118"><text
           id="text126"
           style="font-variant:normal;font-weight:normal;font-size:10.56000042px;font-family:'Courier 10 Pitch';-inkscape-font-specification:CourierNewPSMT;writing-mode:lr-tb;fill:#000000;fill-opacity:1;fill-rule:nonzero;stroke:none"
           transform="matrix(1,0,0,-1,75.024,663.46)"><tspan
             id="tspan124"
             y="0"
             x="0 6.336 12.71424 18.9552 25.291201 31.55328 37.889278 44.15136 50.487358 56.749439 63.085442 69.347519 75.683517 81.945602 88.281601 94.543678 100.87968 107.14176 113.47776 119.73984 126.07584 132.45409 138.69504 145.03104 151.29312 157.62912 163.8912 170.2272 176.48927">14.1196L7.45977 0H9.23407L15.</tspan></text>
</g></g><g
       id="g128"><g
         clip-path="url(#clipPath134)"
         id="g130"><text
           id="text138"
           style="font-variant:normal;font-weight:normal;font-size:10.56000042px;font-family:'Courier 10 Pitch';-inkscape-font-specification:CourierNewPSMT;writing-mode:lr-tb;fill:#000000;fill-opacity:1;fill-rule:nonzero;stroke:none"
           transform="matrix(1,0,0,-1,257.93,663.46)"><tspan
             id="tspan136"
             y="0"
             x="0 6.2409601 12.57696 18.839041 25.175039 31.43712 37.773121 44.035198 50.371201 56.633282 62.96928 69.347519 75.588478 81.924477 88.186562 94.52256 100.78464 107.12064 113.38272 119.71872 125.9808 132.3168 138.57887 144.91489 151.17696 157.51295 163.77504 170.11104 176.37312 182.70912 189.08736 195.32832 201.66432 207.92641 214.26241 220.52448 226.86047 233.12256 239.45856 245.72064 252.05664 258.31873 264.65472">1163 11.051C15.412 10.4861 15.7463 9.83672 </tspan></text>
</g></g><g
       id="g140"><g
         clip-path="url(#clipPath146)"
         id="g142"><text
           id="text150"
           style="font-variant:normal;font-weight:normal;font-size:10.56000042px;font-family:'Courier 10 Pitch';-inkscape-font-specification:CourierNewPSMT;writing-mode:lr-tb;fill:#000000;fill-opacity:1;fill-rule:nonzero;stroke:none"
           transform="matrix(1,0,0,-1,75.024,651.46)"><tspan
             id="tspan148"
             y="0"
             x="0 6.336 12.71424 18.9552 25.291201 31.55328 37.889278 44.15136 50.487358 56.749439 63.085442 69.347519 75.683517 81.945602 88.281601 94.543678 100.87968 107.14176 113.47776 119.73984 126.07584 132.45409 138.69504 145.03104 151.29312 157.62912 163.8912 170.2272 176.48927 182.82529 189.08736 195.42336 201.68544 208.02144 214.28352 220.61952 226.88161 233.21761 239.47968 245.81567 252.19392 258.43488 264.77087 271.03296 277.36896 283.63104 289.96704 296.22913 302.56512 308.82721 315.16321 321.42529 327.76129 334.02335 340.35938 346.62143 352.95743 359.21951 365.55551 371.93375 378.17471 384.51071 390.7728 397.1088 403.37088 409.70688 415.96896 422.30496 428.56705 434.90305">16.1191 9.10245C16.492 8.36823 16.8681 7.61205 17.2474 6.8339C17.6267 </tspan></text>
</g></g><g
       id="g152"><g
         clip-path="url(#clipPath158)"
         id="g154"><text
           id="text162"
           style="font-variant:normal;font-weight:normal;font-size:10.56000042px;font-family:'Courier 10 Pitch';-inkscape-font-specification:CourierNewPSMT;writing-mode:lr-tb;fill:#000000;fill-opacity:1;fill-rule:nonzero;stroke:none"
           transform="matrix(1,0,0,-1,75.024,639.58)"><tspan
             id="tspan160"
             y="0"
             x="0 6.336 12.71424 18.9552 25.291201 31.55328 37.889278 44.15136 50.487358 56.749439 63.085442 69.347519 75.683517 81.945602 88.281601 94.543678 100.87968 107.14176 113.47776 119.73984 126.07584 132.45409 138.69504 145.03104 151.29312 157.62912 163.8912 170.2272 176.48927 182.82529 189.08736 195.42336 201.68544 208.02144 214.28352 220.61952 226.88161 233.21761 239.47968 245.81567 252.19392 258.43488 264.77087 271.03296 277.36896 283.63104 289.96704 296.22913 302.56512 308.82721 315.16321 321.42529 327.76129 334.02335 340.35938 346.62143 352.95743 359.21951 365.55551 371.93375 378.17471 384.51071 390.7728 397.1088 403.37088 409.70688 415.96896 422.30496 428.56705 434.90305 441.16513">6.05574 18.0028 5.28701 18.3756 4.52769C18.7484 3.76837 19.086 3.07494 </tspan></text>
</g></g><g
       id="g164"><g
         clip-path="url(#clipPath170)"
         id="g166"><text
           id="text174"
           style="font-variant:normal;font-weight:normal;font-size:10.56000042px;font-family:'Courier 10 Pitch';-inkscape-font-specification:CourierNewPSMT;writing-mode:lr-tb;fill:#000000;fill-opacity:1;fill-rule:nonzero;stroke:none"
           transform="matrix(1,0,0,-1,75.024,627.7)"><tspan
             id="tspan172"
             y="0"
             x="0 6.336 12.71424 18.9552 25.291201 31.55328 37.889278 44.15136 50.487358 56.749439 63.085442 69.347519 75.683517 81.945602 88.281601 94.543678 100.87968 107.14176 113.47776 119.73984 126.07584 132.45409 138.69504 145.03104 151.29312 157.62912 163.8912 170.2272 176.48927 182.82529 189.08736 195.42336 201.68544 208.02144 214.28352 220.61952 226.88161 233.21761 239.47968 245.81567 252.19392 258.43488 264.77087 271.03296 277.36896 283.63104 289.96704 296.22913 302.56512 308.82721 315.16321 321.42529 327.76129 334.02335 340.35938 346.62143 352.95743 359.21951 365.55551 371.93375 378.17471 384.51071 390.7728 397.1088 403.37088 409.70688 415.96896 422.30496 428.56705 434.90305 441.16513 447.50113">19.3881 2.4474C19.6903 1.81986 19.9442 1.28646 20.1499 0.847178C20.3556 </tspan></text>
</g></g><g
       id="g176"><g
         clip-path="url(#clipPath182)"
         id="g178"><text
           id="text186"
           style="font-variant:normal;font-weight:normal;font-size:10.56000042px;font-family:'Courier 10 Pitch';-inkscape-font-specification:CourierNewPSMT;writing-mode:lr-tb;fill:#000000;fill-opacity:1;fill-rule:nonzero;stroke:none"
           transform="matrix(1,0,0,-1,75.024,615.82)"><tspan
             id="tspan184"
             y="0"
             x="0 6.336 12.71424 18.9552 25.291201 31.55328 37.889278 44.15136 50.487358 56.749439 63.085442 69.347519 75.683517 81.945602 88.281601 94.543678 100.87968 107.14176 113.47776 119.73984 126.07584 132.45409 138.69504 145.03104 151.29312 157.62912 163.8912 170.2272 176.48927 182.82529 189.08736 195.42336 201.68544 208.02144 214.28352 220.61952 226.88161 233.21761 239.47968 245.81567 252.19392 258.43488 264.77087 271.03296 277.36896 283.63104 289.96704 296.22913 302.56512 308.82721 315.16321 321.42529 327.76129">0.407898 20.4906 0.125509 20.5549 0H22.3871ZM36.2619 </tspan></text>
</g></g><g
       id="g188"><g
         clip-path="url(#clipPath194)"
         id="g190"><text
           id="text198"
           style="font-variant:normal;font-weight:normal;font-size:10.56000042px;font-family:'Courier 10 Pitch';-inkscape-font-specification:CourierNewPSMT;writing-mode:lr-tb;fill:#000000;fill-opacity:1;fill-rule:nonzero;stroke:none"
           transform="matrix(1,0,0,-1,75.024,603.94)"><tspan
             id="tspan196"
             y="0"
             x="0 6.336 12.71424 18.9552 25.291201 31.55328 37.889278 44.15136 50.487358 56.749439 63.085442 69.347519 75.683517 81.945602 88.281601 94.543678 100.87968 107.14176 113.47776 119.73984 126.07584 132.45409 138.69504 145.03104 151.29312 157.62912 163.8912 170.2272 176.48927 182.82529 189.08736 195.42336 201.68544 208.02144 214.28352 220.61952 226.88161 233.21761 239.47968 245.81567 252.19392 258.43488 264.77087 271.03296 277.36896 283.63104 289.96704 296.22913 302.56512 308.82721 315.16321 321.42529 327.76129 334.02335 340.35938 346.62143 352.95743 359.21951 365.55551 371.93375 378.17471 384.51071 390.7728 397.1088 403.37088 409.70688 415.96896 422.30496 428.56705 434.90305 441.16513 447.50113 453.76321">1.37431V0H26.9275V14.1384H36.2619V12.7642H28.3547V7.7752H34.9505V6.40089H</tspan></text>
</g></g><g
       id="g200"><g
         clip-path="url(#clipPath206)"
         id="g202"><text
           id="text210"
           style="font-variant:normal;font-weight:normal;font-size:10.56000042px;font-family:'Courier 10 Pitch';-inkscape-font-specification:CourierNewPSMT;writing-mode:lr-tb;fill:#000000;fill-opacity:1;fill-rule:nonzero;stroke:none"
           transform="matrix(1,0,0,-1,75.024,592.06)"><tspan
             id="tspan208"
             y="0"
             x="0 6.336 12.71424 18.9552 25.291201 31.55328 37.889278 44.15136 50.487358 56.749439 63.085442 69.347519 75.683517 81.945602 88.281601 94.543678 100.87968 107.14176 113.47776 119.73984 126.07584 132.45409 138.69504 145.03104 151.29312 157.62912 163.8912 170.2272 176.48927 182.82529 189.08736 195.42336 201.68544">28.3547V1.37431H36.2619ZM40.4167 </tspan></text>
</g></g><g
       id="g212"><g
         clip-path="url(#clipPath218)"
         id="g214"><text
           id="text222"
           style="font-variant:normal;font-weight:normal;font-size:10.56000042px;font-family:'Courier 10 Pitch';-inkscape-font-specification:CourierNewPSMT;writing-mode:lr-tb;fill:#000000;fill-opacity:1;fill-rule:nonzero;stroke:none"
           transform="matrix(1,0,0,-1,75.024,580.18)"><tspan
             id="tspan220"
             y="0"
             x="0 6.336 12.71424 18.9552 25.291201 31.55328 37.889278 44.15136 50.487358 56.749439 63.085442 69.347519 75.683517 81.945602 88.281601 94.543678 100.87968 107.14176 113.47776 119.73984 126.07584 132.45409 138.69504 145.03104 151.29312 157.62912 163.8912 170.2272 176.48927 182.82529 189.08736 195.42336 201.68544 208.02144 214.28352 220.61952 226.88161 233.21761 239.47968 245.81567 252.19392 258.43488 264.77087 271.03296 277.36896 283.63104 289.96704 296.22913 302.56512 308.82721 315.16321 321.42529 327.76129 334.02335 340.35938 346.62143 352.95743 359.21951 365.55551">14.1384V0H41.8438V12.7642H49.7511V14.1384H40.4167ZM53.9058 </tspan></text>
</g></g><g
       id="g224"><g
         clip-path="url(#clipPath230)"
         id="g226"><text
           id="text234"
           style="font-variant:normal;font-weight:normal;font-size:10.56000042px;font-family:'Courier 10 Pitch';-inkscape-font-specification:CourierNewPSMT;writing-mode:lr-tb;fill:#000000;fill-opacity:1;fill-rule:nonzero;stroke:none"
           transform="matrix(1,0,0,-1,75.024,568.3)"><tspan
             id="tspan232"
             y="0"
             x="0 6.336 12.71424 18.9552 25.291201 31.55328 37.889278 44.15136 50.487358 56.749439 63.085442 69.347519 75.683517 81.945602 88.281601 94.543678 100.87968 107.14176 113.47776 119.73984 126.07584 132.45409 138.69504 145.03104 151.29312 157.62912 163.8912 170.2272 176.48927 182.82529 189.08736 195.42336 201.68544 208.02144 214.28352 220.61952 226.88161 233.21761">0V14.1384H60.8294C60.9323 14.1384 61.1</tspan></text>
</g></g><g
       id="g236"><g
         clip-path="url(#clipPath242)"
         id="g238"><text
           id="text246"
           style="font-variant:normal;font-weight:normal;font-size:10.56000042px;font-family:'Courier 10 Pitch';-inkscape-font-specification:CourierNewPSMT;writing-mode:lr-tb;fill:#000000;fill-opacity:1;fill-rule:nonzero;stroke:none"
           transform="matrix(1,0,0,-1,314.57,568.3)"><tspan
             id="tspan244"
             y="0"
             x="0 6.336 12.71424 18.9552 25.291201 31.55328 37.889278 44.15136 50.487358 56.749439 63.085442 69.347519 75.683517 81.945602 88.281601 94.543678 100.87968 107.14176 113.47776 119.73984 126.07584 132.45409 138.69504 145.03104 151.29312 157.62912 163.8912 170.2272 176.48927 182.82529 189.08736 195.42336 201.68544 208.02144 214.28352 220.61952">606 14.1039 61.5141 14.0349C61.8677 </tspan></text>
</g></g><g
       id="g248"><g
         clip-path="url(#clipPath254)"
         id="g250"><text
           id="text258"
           style="font-variant:normal;font-weight:normal;font-size:10.56000042px;font-family:'Courier 10 Pitch';-inkscape-font-specification:CourierNewPSMT;writing-mode:lr-tb;fill:#000000;fill-opacity:1;fill-rule:nonzero;stroke:none"
           transform="matrix(1,0,0,-1,75.024,556.3)"><tspan
             id="tspan256"
             y="0"
             x="0 6.336 12.71424 18.9552 25.291201 31.55328 37.889278 44.15136 50.487358 56.749439 63.085442 69.347519 75.683517 81.945602 88.281601 94.543678 100.87968 107.14176 113.47776 119.73984 126.07584 132.45409 138.69504 145.03104 151.29312 157.62912 163.8912 170.2272 176.48927 182.82529 189.08736 195.42336 201.68544 208.02144 214.28352 220.61952 226.88161 233.21761 239.47968 245.81567 252.19392 258.43488 264.77087 271.03296 277.36896 283.63104 289.96704 296.22913 302.56512 308.82721 315.16321 321.42529 327.76129 334.02335 340.35938 346.62143 352.95743 359.21951 365.55551 371.93375 378.17471 384.51071 390.7728 397.1088 403.37088 409.70688 415.96896 422.30496 428.56705 434.90305 441.16513">13.9658 62.2502 13.8121 62.6617 13.5737C62.8545 13.4607 63.057 13.3132 </tspan></text>
</g></g><g
       id="g260"><g
         clip-path="url(#clipPath266)"
         id="g262"><text
           id="text270"
           style="font-variant:normal;font-weight:normal;font-size:10.56000042px;font-family:'Courier 10 Pitch';-inkscape-font-specification:CourierNewPSMT;writing-mode:lr-tb;fill:#000000;fill-opacity:1;fill-rule:nonzero;stroke:none"
           transform="matrix(1,0,0,-1,75.024,544.39)"><tspan
             id="tspan268"
             y="0"
             x="0 6.336 12.71424 18.9552 25.291201 31.55328 37.889278 44.15136 50.487358 56.749439 63.085442 69.347519 75.683517 81.945602 88.281601 94.543678 100.87968 107.14176 113.47776 119.73984 126.07584 132.45409 138.69504 145.03104 151.29312 157.62912 163.8912 170.2272 176.48927 182.82529 189.08736 195.42336 201.68544 208.02144 214.28352 220.61952 226.88161 233.21761 239.47968 245.81567 252.19392 258.43488 264.77087 271.03296 277.36896 283.63104 289.96704 296.22913 302.56512 308.82721 315.16321 321.42529 327.76129 334.02335 340.35938 346.62143 352.95743 359.21951 365.55551 371.93375 378.17471 384.51071 390.7728 397.1088 403.37088 409.70688 415.96896 422.30496 428.56705 434.90305 441.16513">63.2691 13.1313C63.4813 12.9492 63.671 12.7265 63.8381 12.4629C64.0053 </tspan></text>
</g></g><g
       id="g272"><g
         clip-path="url(#clipPath278)"
         id="g274"><text
           id="text282"
           style="font-variant:normal;font-weight:normal;font-size:10.56000042px;font-family:'Courier 10 Pitch';-inkscape-font-specification:CourierNewPSMT;writing-mode:lr-tb;fill:#000000;fill-opacity:1;fill-rule:nonzero;stroke:none"
           transform="matrix(1,0,0,-1,75.024,532.51)"><tspan
             id="tspan280"
             y="0"
             x="0 6.336 12.71424 18.9552 25.291201 31.55328 37.889278 44.15136 50.487358 56.749439 63.085442 69.347519 75.683517 81.945602 88.281601 94.543678 100.87968 107.14176 113.47776 119.73984 126.07584 132.45409 138.69504 145.03104 151.29312 157.62912 163.8912 170.2272 176.48927 182.82529 189.08736 195.42336 201.68544 208.02144 214.28352 220.61952 226.88161 233.21761 239.47968 245.81567 252.19392 258.43488 264.77087 271.03296 277.36896 283.63104 289.96704 296.22913 302.56512 308.82721 315.16321 321.42529 327.76129 334.02335 340.35938 346.62143 352.95743 359.21951 365.55551 371.93375 378.17471 384.51071 390.7728 397.1088 403.37088 409.70688 415.96896 422.30496 428.56705 434.90305">12.1993 64.1435 11.8887 64.2528 11.5311C64.362 11.1733 64.4167 10.756 </tspan></text>
</g></g><g
       id="g284"><g
         clip-path="url(#clipPath290)"
         id="g286"><text
           id="text294"
           style="font-variant:normal;font-weight:normal;font-size:10.56000042px;font-family:'Courier 10 Pitch';-inkscape-font-specification:CourierNewPSMT;writing-mode:lr-tb;fill:#000000;fill-opacity:1;fill-rule:nonzero;stroke:none"
           transform="matrix(1,0,0,-1,75.024,520.63)"><tspan
             id="tspan292"
             y="0"
             x="0 6.336 12.71424 18.9552 25.291201 31.55328 37.889278 44.15136">64.4167 </tspan></text>
</g></g><g
       id="g296"><g
         clip-path="url(#clipPath302)"
         id="g298"><text
           id="text306"
           style="font-variant:normal;font-weight:normal;font-size:10.56000042px;font-family:'Courier 10 Pitch';-inkscape-font-specification:CourierNewPSMT;writing-mode:lr-tb;fill:#000000;fill-opacity:1;fill-rule:nonzero;stroke:none"
           transform="matrix(1,0,0,-1,125.54,520.63)"><tspan
             id="tspan304"
             y="0"
             x="0 6.2409601 12.57696 18.839041 25.175039 31.43712 37.773121 44.035198 50.371201 56.633282 62.96928 69.231361 75.56736 81.945602 88.186562 94.52256 100.78464 107.12064 113.38272 119.71872 125.9808 132.3168 138.57887 144.91489 151.17696 157.51295 163.77504 170.11104 176.37312 182.70912 188.97121 195.30721 201.68544 207.92641 214.26241 220.52448 226.86047 233.12256 239.45856 245.72064 252.05664 258.31873 264.65472 270.91681 277.25281 283.51489 289.85089 296.11295 302.44897 308.71103 315.04703 321.42529 327.66623 334.00223 340.26431 346.60031 352.8624 359.19839 365.46048 371.79648 378.05856 384.39456 390.65665 396.99265">10.2791C64.4167 9.73941 64.3459 9.26874 64.2046 8.86712C64.0631 </tspan></text>
</g></g><g
       id="g308"><g
         clip-path="url(#clipPath314)"
         id="g310"><text
           id="text318"
           style="font-variant:normal;font-weight:normal;font-size:10.56000042px;font-family:'Courier 10 Pitch';-inkscape-font-specification:CourierNewPSMT;writing-mode:lr-tb;fill:#000000;fill-opacity:1;fill-rule:nonzero;stroke:none"
           transform="matrix(1,0,0,-1,75.024,508.75)"><tspan
             id="tspan316"
             y="0"
             x="0 6.336 12.71424 18.9552 25.291201 31.55328 37.889278 44.15136 50.487358 56.749439 63.085442 69.347519 75.683517 81.945602 88.281601 94.543678 100.87968 107.14176 113.47776 119.73984 126.07584 132.45409 138.69504 145.03104 151.29312 157.62912 163.8912 170.2272 176.48927 182.82529 189.08736 195.42336 201.68544 208.02144 214.28352 220.61952 226.88161 233.21761 239.47968 245.81567 252.19392 258.43488 264.77087 271.03296 277.36896 283.63104 289.96704 296.22913 302.56512 308.82721 315.16321 321.42529 327.76129 334.02335 340.35938 346.62143 352.95743 359.21951 365.55551 371.93375 378.17471 384.51071 390.7728 397.1088 403.37088 409.70688 415.96896 422.30496 428.56705 434.90305 441.16513 447.50113">8.46549 63.8831 8.12035 63.6645 7.83169C63.4459 7.54301 63.1984 7.31082 </tspan></text>
</g></g><g
       id="g320"><g
         clip-path="url(#clipPath326)"
         id="g322"><text
           id="text330"
           style="font-variant:normal;font-weight:normal;font-size:10.56000042px;font-family:'Courier 10 Pitch';-inkscape-font-specification:CourierNewPSMT;writing-mode:lr-tb;fill:#000000;fill-opacity:1;fill-rule:nonzero;stroke:none"
           transform="matrix(1,0,0,-1,75.024,496.87)"><tspan
             id="tspan328"
             y="0"
             x="0 6.336 12.71424 18.9552 25.291201 31.55328 37.889278 44.15136 50.487358 56.749439 63.085442 69.347519 75.683517 81.945602 88.281601 94.543678 100.87968 107.14176 113.47776 119.73984 126.07584 132.45409 138.69504 145.03104 151.29312 157.62912 163.8912 170.2272 176.48927 182.82529 189.08736 195.42336 201.68544 208.02144 214.28352 220.61952 226.88161 233.21761 239.47968 245.81567 252.19392 258.43488 264.77087 271.03296 277.36896 283.63104 289.96704 296.22913 302.56512 308.82721 315.16321 321.42529 327.76129 334.02335 340.35938 346.62143 352.95743 359.21951 365.55551 371.93375 378.17471 384.51071 390.7728 397.1088 403.37088 409.70688 415.96896">62.922 7.13512C62.6455 6.9594 62.366 6.82134 62.083 6.72094C62.366 </tspan></text>
</g></g><g
       id="g332"><g
         clip-path="url(#clipPath338)"
         id="g334"><text
           id="text342"
           style="font-variant:normal;font-weight:normal;font-size:10.56000042px;font-family:'Courier 10 Pitch';-inkscape-font-specification:CourierNewPSMT;writing-mode:lr-tb;fill:#000000;fill-opacity:1;fill-rule:nonzero;stroke:none"
           transform="matrix(1,0,0,-1,75.024,484.99)"><tspan
             id="tspan340"
             y="0"
             x="0 6.336 12.71424 18.9552 25.291201 31.55328 37.889278 44.15136 50.487358 56.749439 63.085442 69.347519 75.683517 81.945602 88.281601 94.543678 100.87968 107.14176 113.47776 119.73984 126.07584 132.45409 138.69504 145.03104 151.29312 157.62912 163.8912 170.2272 176.48927 182.82529 189.08736 195.42336 201.68544 208.02144 214.28352 220.61952 226.88161 233.21761 239.47968 245.81567 252.19392 258.43488 264.77087 271.03296 277.36896 283.63104 289.96704 296.22913 302.56512 308.82721 315.16321 321.42529 327.76129">6.44483 62.6102 6.06517 62.8159 5.58196C63.0216 5.098</tspan></text>
</g></g><g
       id="g344"><g
         clip-path="url(#clipPath350)"
         id="g346"><text
           id="text354"
           style="font-variant:normal;font-weight:normal;font-size:10.56000042px;font-family:'Courier 10 Pitch';-inkscape-font-specification:CourierNewPSMT;writing-mode:lr-tb;fill:#000000;fill-opacity:1;fill-rule:nonzero;stroke:none"
           transform="matrix(1,0,0,-1,409.15,484.99)"><tspan
             id="tspan352"
             y="0"
             x="0 6.336 12.59808 18.93408 25.196159 31.53216 37.9104 44.15136 50.487358 56.749439 63.085442 69.347519 75.683517 81.945602 88.281601 94.543678 100.87968 107.14176 113.47776">75 63.1245 4.51828 </tspan></text>
</g></g><g
       id="g356"><g
         clip-path="url(#clipPath362)"
         id="g358"><text
           id="text366"
           style="font-variant:normal;font-weight:normal;font-size:10.56000042px;font-family:'Courier 10 Pitch';-inkscape-font-specification:CourierNewPSMT;writing-mode:lr-tb;fill:#000000;fill-opacity:1;fill-rule:nonzero;stroke:none"
           transform="matrix(1,0,0,-1,75.024,473.11)"><tspan
             id="tspan364"
             y="0"
             x="0 6.336 12.71424 18.9552 25.291201 31.55328 37.889278 44.15136 50.487358 56.749439 63.085442 69.347519 75.683517 81.945602 88.281601 94.543678 100.87968 107.14176 113.47776 119.73984 126.07584 132.45409 138.69504 145.03104 151.29312 157.62912 163.8912 170.2272 176.48927 182.82529 189.08736 195.42336 201.68544 208.02144 214.28352 220.61952 226.88161 233.21761 239.47968 245.81567 252.19392 258.43488 264.77087 271.03296 277.36896 283.63104 289.96704 296.22913 302.56512 308.82721 315.16321 321.42529 327.76129 334.02335 340.35938 346.62143 352.95743 359.21951 365.55551 371.93375 378.17471 384.51071 390.7728 397.1088 403.37088 409.70688 415.96896 422.30496 428.56705 434.90305 441.16513">63.1245 3.84053C63.1245 3.3385 63.0698 2.90551 62.9605 2.54153C62.8513 </tspan></text>
</g></g><g
       id="g368"><g
         clip-path="url(#clipPath374)"
         id="g370"><text
           id="text378"
           style="font-variant:normal;font-weight:normal;font-size:10.56000042px;font-family:'Courier 10 Pitch';-inkscape-font-specification:CourierNewPSMT;writing-mode:lr-tb;fill:#000000;fill-opacity:1;fill-rule:nonzero;stroke:none"
           transform="matrix(1,0,0,-1,75.024,461.11)"><tspan
             id="tspan376"
             y="0"
             x="0 6.336 12.71424 18.9552 25.291201 31.55328 37.889278 44.15136 50.487358 56.749439 63.085442 69.347519 75.683517 81.945602 88.281601 94.543678 100.87968 107.14176 113.47776 119.73984 126.07584 132.45409 138.69504 145.03104 151.29312 157.62912 163.8912 170.2272 176.48927 182.82529 189.08736 195.42336 201.68544 208.02144 214.28352 220.61952 226.88161 233.21761 239.47968 245.81567 252.19392 258.43488 264.77087 271.03296 277.36896 283.63104 289.96704 296.22913 302.56512 308.82721 315.16321 321.42529 327.76129 334.02335 340.35938 346.62143 352.95743 359.21951 365.55551 371.93375 378.17471 384.51071 390.7728 397.1088 403.37088 409.70688 415.96896 422.30496 428.56705 434.90305 441.16513 447.50113">2.17756 62.7131 1.86379 62.5459 1.60023C62.3787 1.33666 62.1923 1.11702 </tspan></text>
</g></g><g
       id="g380"><g
         clip-path="url(#clipPath386)"
         id="g382"><text
           id="text390"
           style="font-variant:normal;font-weight:normal;font-size:10.56000042px;font-family:'Courier 10 Pitch';-inkscape-font-specification:CourierNewPSMT;writing-mode:lr-tb;fill:#000000;fill-opacity:1;fill-rule:nonzero;stroke:none"
           transform="matrix(1,0,0,-1,75.024,449.23)"><tspan
             id="tspan388"
             y="0"
             x="0 6.336 12.71424 18.9552 25.291201 31.55328 37.889278 44.15136 50.487358 56.749439 63.085442 69.347519 75.683517 81.945602 88.281601 94.543678 100.87968 107.14176 113.47776 119.73984 126.07584 132.45409 138.69504 145.03104 151.29312 157.62912 163.8912 170.2272 176.48927 182.82529 189.08736 195.42336 201.68544 208.02144 214.28352 220.61952 226.88161 233.21761 239.47968 245.81567 252.19392 258.43488 264.77087 271.03296 277.36896 283.63104 289.96704 296.22913 302.56512 308.82721 315.16321 321.42529 327.76129 334.02335 340.35938 346.62143 352.95743 359.21951 365.55551">61.9866 0.941306C61.7809 0.765596 61.5816 0.621263 61.3888 </tspan></text>
</g></g><g
       id="g392"><g
         clip-path="url(#clipPath398)"
         id="g394"><text
           id="text402"
           style="font-variant:normal;font-weight:normal;font-size:10.56000042px;font-family:'Courier 10 Pitch';-inkscape-font-specification:CourierNewPSMT;writing-mode:lr-tb;fill:#000000;fill-opacity:1;fill-rule:nonzero;stroke:none"
           transform="matrix(1,0,0,-1,75.024,437.35)"><tspan
             id="tspan400"
             y="0"
             x="0 6.336 12.71424 18.9552 25.291201 31.55328 37.889278 44.15136 50.487358 56.749439 63.085442 69.347519 75.683517 81.945602 88.281601 94.543678 100.87968 107.14176 113.47776 119.73984 126.07584 132.45409 138.69504 145.03104 151.29312 157.62912 163.8912 170.2272 176.48927 182.82529 189.08736 195.42336 201.68544 208.02144 214.28352">0.508306C61.1702 0.382798 60.9613 0</tspan></text>
</g></g><g
       id="g404"><g
         clip-path="url(#clipPath410)"
         id="g406"><text
           id="text414"
           style="font-variant:normal;font-weight:normal;font-size:10.56000042px;font-family:'Courier 10 Pitch';-inkscape-font-specification:CourierNewPSMT;writing-mode:lr-tb;fill:#000000;fill-opacity:1;fill-rule:nonzero;stroke:none"
           transform="matrix(1,0,0,-1,295.73,437.35)"><tspan
             id="tspan412"
             y="0"
             x="0 6.2409601 12.57696 18.839041 25.175039 31.55328 37.794239 44.130241 50.392319 56.728321 62.990398 69.326401 75.588478 81.924477 88.186562 94.52256 100.78464 107.12064 113.38272 119.71872 125.9808 132.3168 138.57887 144.91489 151.29312 157.53407 163.87009 170.13216 176.46815 182.73024 189.06624 195.32832">.285531 60.762 0.216501C60.5627 </tspan></text>
</g></g><g
       id="g416"><g
         clip-path="url(#clipPath422)"
         id="g418"><text
           id="text426"
           style="font-variant:normal;font-weight:normal;font-size:10.56000042px;font-family:'Courier 10 Pitch';-inkscape-font-specification:CourierNewPSMT;writing-mode:lr-tb;fill:#000000;fill-opacity:1;fill-rule:nonzero;stroke:none"
           transform="matrix(1,0,0,-1,75.024,425.47)"><tspan
             id="tspan424"
             y="0"
             x="0 6.336 12.71424 18.9552 25.291201 31.55328 37.889278 44.15136 50.487358 56.749439 63.085442 69.347519 75.683517 81.945602 88.281601 94.543678 100.87968 107.14176 113.47776 119.73984 126.07584 132.45409 138.69504 145.03104 151.29312 157.62912 163.8912 170.2272 176.48927 182.82529 189.08736 195.42336 201.68544 208.02144 214.28352 220.61952 226.88161 233.21761 239.47968 245.81567 252.19392 258.43488 264.77087 271.03296 277.36896 283.63104 289.96704 296.22913 302.56512 308.82721 315.16321 321.42529 327.76129 334.02335 340.35938 346.62143 352.95743 359.21951 365.55551 371.93375 378.17471 384.51071 390.7728 397.1088 403.37088 409.70688 415.96896 422.30496 428.56705 434.90305">0.147472 60.3827 0.0972684 60.222 0.0658915C60.0612 0.0345144 59.9294 </tspan></text>
</g></g><g
       id="g428"><g
         clip-path="url(#clipPath434)"
         id="g430"><text
           id="text438"
           style="font-variant:normal;font-weight:normal;font-size:10.56000042px;font-family:'Courier 10 Pitch';-inkscape-font-specification:CourierNewPSMT;writing-mode:lr-tb;fill:#000000;fill-opacity:1;fill-rule:nonzero;stroke:none"
           transform="matrix(1,0,0,-1,75.024,413.59)"><tspan
             id="tspan436"
             y="0"
             x="0 6.336 12.71424 18.9552 25.291201 31.55328 37.889278 44.15136 50.487358 56.749439 63.085442 69.347519 75.683517 81.945602 88.281601 94.543678 100.87968 107.14176 113.47776 119.73984 126.07584 132.45409 138.69504 145.03104 151.29312 157.62912 163.8912 170.2272 176.48927 182.82529 189.08736 195.42336 201.68544 208.02144 214.28352 220.61952 226.88161 233.21761 239.47968 245.81567 252.19392 258.43488 264.77087 271.03296 277.36896 283.63104 289.96704 296.22913 302.56512 308.82721 315.16321 321.42529 327.76129 334.02335 340.35938 346.62143 352.95743 359.21951 365.55551 371.93375 378.17471 384.51071 390.7728 397.1088 403.37088">0.0156885 59.8266 0.00941306C59.7237 0.00313766 59.6659 0 59.653 </tspan></text>
</g></g><g
       id="g440"><g
         clip-path="url(#clipPath446)"
         id="g442"><text
           id="text450"
           style="font-variant:normal;font-weight:normal;font-size:10.56000042px;font-family:'Courier 10 Pitch';-inkscape-font-specification:CourierNewPSMT;writing-mode:lr-tb;fill:#000000;fill-opacity:1;fill-rule:nonzero;stroke:none"
           transform="matrix(1,0,0,-1,75.024,401.71)"><tspan
             id="tspan448"
             y="0"
             x="0 6.336 12.71424 18.9552 25.291201 31.55328 37.889278 44.15136 50.487358 56.749439 63.085442 69.347519 75.683517 81.945602 88.281601 94.543678 100.87968 107.14176 113.47776 119.73984 126.07584 132.45409 138.69504 145.03104 151.29312 157.62912 163.8912 170.2272 176.48927 182.82529 189.08736 195.42336 201.68544 208.02144 214.28352 220.61952 226.88161 233.21761 239.47968 245.81567 252.19392 258.43488 264.77087 271.03296 277.36896 283.63104 289.96704 296.22913 302.56512 308.82721 315.16321 321.42529 327.76129 334.02335 340.35938 346.62143 352.95743 359.21951 365.55551 371.93375 378.17471 384.51071 390.7728 397.1088 403.37088 409.70688 415.96896">0H53.9058ZM60.7909 12.7642C60.8423 12.7642 60.9838 12.7422 61.2152 </tspan></text>
</g></g><g
       id="g452"><g
         clip-path="url(#clipPath458)"
         id="g454"><text
           id="text462"
           style="font-variant:normal;font-weight:normal;font-size:10.56000042px;font-family:'Courier 10 Pitch';-inkscape-font-specification:CourierNewPSMT;writing-mode:lr-tb;fill:#000000;fill-opacity:1;fill-rule:nonzero;stroke:none"
           transform="matrix(1,0,0,-1,75.024,389.83)"><tspan
             id="tspan460"
             y="0"
             x="0 6.336 12.71424 18.9552 25.291201 31.55328 37.889278 44.15136 50.487358 56.749439 63.085442 69.347519 75.683517 81.945602 88.281601 94.543678 100.87968 107.14176 113.47776 119.73984 126.07584 132.45409">12.6982C61.4466 12.654</tspan></text>
</g></g><g
       id="g464"><g
         clip-path="url(#clipPath470)"
         id="g466"><text
           id="text474"
           style="font-variant:normal;font-weight:normal;font-size:10.56000042px;font-family:'Courier 10 Pitch';-inkscape-font-specification:CourierNewPSMT;writing-mode:lr-tb;fill:#000000;fill-opacity:1;fill-rule:nonzero;stroke:none"
           transform="matrix(1,0,0,-1,213.77,389.83)"><tspan
             id="tspan472"
             y="0"
             x="0 6.336 12.59808 18.93408 25.196159 31.53216 37.794239 44.130241 50.392319 56.728321 62.990398 69.326401 75.588478 81.924477 88.186562 94.52256 100.78464 107.12064 113.49888 119.73984 126.07584 132.33792 138.67392 144.936 151.272 157.53407 163.87009 170.13216 176.46815 182.73024 189.06624 195.32832 201.66432 207.92641 214.26241 220.52448 226.86047 233.23872 239.47968 245.81567 252.07776 258.41376 264.67584 271.01184 277.27393 283.60992 289.87201 296.20801 302.47009 308.80609">3 61.6942 12.5508 61.9577 12.3877C62.2212 12.2244 </tspan></text>
</g></g><g
       id="g476"><g
         clip-path="url(#clipPath482)"
         id="g478"><text
           id="text486"
           style="font-variant:normal;font-weight:normal;font-size:10.56000042px;font-family:'Courier 10 Pitch';-inkscape-font-specification:CourierNewPSMT;writing-mode:lr-tb;fill:#000000;fill-opacity:1;fill-rule:nonzero;stroke:none"
           transform="matrix(1,0,0,-1,75.024,377.93)"><tspan
             id="tspan484"
             y="0"
             x="0 6.336 12.71424 18.9552 25.291201 31.55328 37.889278 44.15136 50.487358 56.749439 63.085442 69.347519 75.683517 81.945602 88.281601 94.543678 100.87968 107.14176 113.47776 119.73984 126.07584 132.45409 138.69504 145.03104 151.29312 157.62912 163.8912 170.2272 176.48927 182.82529 189.08736 195.42336 201.68544 208.02144 214.28352 220.61952 226.88161 233.21761 239.47968 245.81567 252.19392 258.43488 264.77087 271.03296 277.36896 283.63104 289.96704 296.22913 302.56512 308.82721 315.16321 321.42529 327.76129 334.02335 340.35938 346.62143 352.95743 359.21951 365.55551 371.93375 378.17471 384.51071 390.7728 397.1088 403.37088 409.70688 415.96896 422.30496 428.56705 434.90305 441.16513">62.456 11.9766 62.6617 11.6439C62.8674 11.3114 62.9702 10.8564 62.9702 </tspan></text>
</g></g><g
       id="g488"><g
         clip-path="url(#clipPath494)"
         id="g490"><text
           id="text498"
           style="font-variant:normal;font-weight:normal;font-size:10.56000042px;font-family:'Courier 10 Pitch';-inkscape-font-specification:CourierNewPSMT;writing-mode:lr-tb;fill:#000000;fill-opacity:1;fill-rule:nonzero;stroke:none"
           transform="matrix(1,0,0,-1,75.024,365.93)"><tspan
             id="tspan496"
             y="0"
             x="0 6.336 12.71424 18.9552 25.291201 31.55328 37.889278 44.15136 50.487358 56.749439 63.085442 69.347519 75.683517 81.945602 88.281601 94.543678 100.87968 107.14176 113.47776 119.73984 126.07584 132.45409 138.69504 145.03104 151.29312 157.62912 163.8912 170.2272 176.48927 182.82529 189.08736 195.42336 201.68544 208.02144 214.28352 220.61952 226.88161 233.21761 239.47968 245.81567 252.19392 258.43488 264.77087 271.03296 277.36896 283.63104 289.96704 296.22913 302.56512 308.82721 315.16321 321.42529 327.76129 334.02335 340.35938 346.62143 352.95743 359.21951 365.55551 371.93375 378.17471 384.51071 390.7728 397.1088 403.37088 409.70688 415.96896 422.30496 428.56705 434.90305 441.16513">10.2791C62.9702 9.70172 62.8674 9.24679 62.6617 8.91419C62.456 8.58159 </tspan></text>
</g></g><g
       id="g500"><g
         clip-path="url(#clipPath506)"
         id="g502"><text
           id="text510"
           style="font-variant:normal;font-weight:normal;font-size:10.56000042px;font-family:'Courier 10 Pitch';-inkscape-font-specification:CourierNewPSMT;writing-mode:lr-tb;fill:#000000;fill-opacity:1;fill-rule:nonzero;stroke:none"
           transform="matrix(1,0,0,-1,75.024,354.05)"><tspan
             id="tspan508"
             y="0"
             x="0 6.336 12.71424 18.9552 25.291201 31.55328 37.889278 44.15136 50.487358 56.749439 63.085442 69.347519 75.683517 81.945602 88.281601 94.543678 100.87968 107.14176 113.47776 119.73984 126.07584 132.45409 138.69504 145.03104 151.29312 157.62912 163.8912 170.2272 176.48927 182.82529 189.08736 195.42336 201.68544 208.02144 214.28352 220.61952 226.88161 233.21761 239.47968 245.81567 252.19392 258.43488 264.77087 271.03296 277.36896 283.63104 289.96704 296.22913 302.56512 308.82721 315.16321 321.42529 327.76129 334.02335 340.35938 346.62143 352.95743 359.21951 365.55551 371.93375 378.17471 384.51071 390.7728 397.1088">62.2212 8.33058 61.9577 8.16114C61.6942 7.9917 61.4434 7.88502 6</tspan></text>
</g></g><g
       id="g512"><g
         clip-path="url(#clipPath518)"
         id="g514"><text
           id="text522"
           style="font-variant:normal;font-weight:normal;font-size:10.56000042px;font-family:'Courier 10 Pitch';-inkscape-font-specification:CourierNewPSMT;writing-mode:lr-tb;fill:#000000;fill-opacity:1;fill-rule:nonzero;stroke:none"
           transform="matrix(1,0,0,-1,478.54,354.05)"><tspan
             id="tspan520"
             y="0"
             x="0 6.336 12.59808 18.93408 25.196159 31.53216 37.794239">1.2055 </tspan></text>
</g></g><g
       id="g524"><g
         clip-path="url(#clipPath530)"
         id="g526"><text
           id="text534"
           style="font-variant:normal;font-weight:normal;font-size:10.56000042px;font-family:'Courier 10 Pitch';-inkscape-font-specification:CourierNewPSMT;writing-mode:lr-tb;fill:#000000;fill-opacity:1;fill-rule:nonzero;stroke:none"
           transform="matrix(1,0,0,-1,75.024,342.17)"><tspan
             id="tspan532"
             y="0"
             x="0 6.336 12.71424 18.9552 25.291201 31.55328 37.889278 44.15136 50.487358 56.749439 63.085442 69.347519 75.683517 81.945602 88.281601 94.543678 100.87968 107.14176 113.47776 119.73984 126.07584 132.45409 138.69504 145.03104 151.29312 157.62912 163.8912 170.2272 176.48927 182.82529 189.08736 195.42336 201.68544 208.02144 214.28352 220.61952 226.88161 233.21761 239.47968 245.81567 252.19392 258.43488 264.77087 271.03296 277.36896 283.63104">7.8411C60.9677 7.79717 60.8231 7.7752 60.7716 </tspan></text>
</g></g><g
       id="g536"><g
         clip-path="url(#clipPath542)"
         id="g538"><text
           id="text546"
           style="font-variant:normal;font-weight:normal;font-size:10.56000042px;font-family:'Courier 10 Pitch';-inkscape-font-specification:CourierNewPSMT;writing-mode:lr-tb;fill:#000000;fill-opacity:1;fill-rule:nonzero;stroke:none"
           transform="matrix(1,0,0,-1,75.024,330.29)"><tspan
             id="tspan544"
             y="0"
             x="0 6.336 12.71424 18.9552 25.291201 31.55328 37.889278 44.15136 50.487358 56.749439 63.085442 69.347519 75.683517 81.945602 88.281601 94.543678 100.87968 107.14176 113.47776 119.73984 126.07584 132.45409 138.69504 145.03104 151.29312 157.62912 163.8912 170.2272 176.48927 182.82529 189.08736 195.42336 201.68544 208.02144 214.28352 220.61952 226.88161 233.21761 239.47968 245.81567 252.19392 258.43488 264.77087 271.03296 277.36896 283.63104 289.96704 296.22913 302.56512 308.82721 315.16321 321.42529 327.76129 334.02335 340.35938 346.62143 352.95743 359.21951 365.55551 371.93375 378.17471 384.51071 390.7728 397.1088 403.37088 409.70688 415.96896 422.30496 428.56705 434.90305">7.7752H55.333V12.7642H60.7909ZM60.0676 6.32559C59.8427 6.3758 59.7044 </tspan></text>
</g></g><g
       id="g548"><g
         clip-path="url(#clipPath554)"
         id="g550"><text
           id="text558"
           style="font-variant:normal;font-weight:normal;font-size:10.56000042px;font-family:'Courier 10 Pitch';-inkscape-font-specification:CourierNewPSMT;writing-mode:lr-tb;fill:#000000;fill-opacity:1;fill-rule:nonzero;stroke:none"
           transform="matrix(1,0,0,-1,75.024,318.41)"><tspan
             id="tspan556"
             y="0"
             x="0 6.336 12.71424 18.9552 25.291201 31.55328 37.889278 44.15136 50.487358 56.749439 63.085442 69.347519 75.683517 81.945602 88.281601 94.543678 100.87968 107.14176 113.47776 119.73984 126.07584 132.45409 138.69504 145.03104 151.29312 157.62912 163.8912 170.2272 176.48927 182.82529 189.08736 195.42336 201.68544 208.02144 214.28352 220.61952 226.88161 233.21761 239.47968 245.81567 252.19392 258.43488 264.77087 271.03296 277.36896 283.63104 289.96704 296.22913 302.56512 308.82721 315.16321 321.42529 327.76129 334.02335 340.35938 346.62143 352.95743 359.21951 365.55551 371.93375 378.17471 384.51071 390.7728 397.1088 403.37088 409.70688 415.96896 422.30496 428.56705">6.40089 59.653 6.40089H55.333V1.37431H59.653C59.6788 1.37431 59.8008 </tspan></text>
</g></g><g
       id="g560"><g
         clip-path="url(#clipPath566)"
         id="g562"><text
           id="text570"
           style="font-variant:normal;font-weight:normal;font-size:10.56000042px;font-family:'Courier 10 Pitch';-inkscape-font-specification:CourierNewPSMT;writing-mode:lr-tb;fill:#000000;fill-opacity:1;fill-rule:nonzero;stroke:none"
           transform="matrix(1,0,0,-1,75.024,306.53)"><tspan
             id="tspan568"
             y="0"
             x="0 6.336 12.71424 18.9552 25.291201 31.55328 37.889278 44.15136 50.487358 56.749439 63.085442 69.347519 75.683517 81.945602 88.281601 94.543678 100.87968 107.14176 113.47776 119.73984 126.07584 132.45409 138.69504 145.03104 151.29312 157.62912 163.8912 170.2272 176.48927 182.82529 189.08736 195.42336 201.68544 208.02144 214.28352 220.61952 226.88161 233.21761 239.47968 245.81567 252.19392 258.43488 264.77087 271.03296 277.36896 283.63104 289.96704 296.22913 302.56512 308.82721 315.16321 321.42529 327.76129 334.02335 340.35938 346.62143 352.95743 359.21951 365.55551 371.93375 378.17471 384.51071">1.39313 60.0194 1.43078C60.238 1.46844 60.4759 1.56571 60.733 </tspan></text>
</g></g><g
       id="g572"><g
         clip-path="url(#clipPath578)"
         id="g574"><text
           id="text582"
           style="font-variant:normal;font-weight:normal;font-size:10.56000042px;font-family:'Courier 10 Pitch';-inkscape-font-specification:CourierNewPSMT;writing-mode:lr-tb;fill:#000000;fill-opacity:1;fill-rule:nonzero;stroke:none"
           transform="matrix(1,0,0,-1,75.024,294.65)"><tspan
             id="tspan580"
             y="0"
             x="0 6.3600001">1.</tspan></text>
</g></g><g
       id="g584"><g
         clip-path="url(#clipPath590)"
         id="g586"><text
           id="text594"
           style="font-variant:normal;font-weight:normal;font-size:10.56000042px;font-family:'Courier 10 Pitch';-inkscape-font-specification:CourierNewPSMT;writing-mode:lr-tb;fill:#000000;fill-opacity:1;fill-rule:nonzero;stroke:none"
           transform="matrix(1,0,0,-1,87.744,294.65)"><tspan
             id="tspan592"
             y="0"
             x="0 6.2409601 12.57696 18.839041 25.175039 31.43712 37.773121 44.035198 50.371201 56.633282 62.96928 69.231361 75.56736 81.829437 88.165443 94.427521 100.76352 107.0256 113.3616 119.73984 125.9808 132.3168 138.57887 144.91489 151.17696 157.51295 163.77504 170.11104 176.37312 182.70912 188.97121 195.30721 201.56927 207.90527 214.16736 220.50336 226.76544 233.10144 239.47968 245.72064 252.05664 258.31873 264.65472 270.91681 277.25281 283.51489 289.85089 296.11295 302.44897 308.71103 315.04703 321.30911 327.64511 333.9072 340.24319 346.50528 352.84128 359.21951 365.46048 371.79648 378.05856 384.39456 390.65665 396.99265 403.25473 409.59073 415.85281 422.18881 428.45087">72259C60.9902 1.87948 61.2248 2.12422 61.437 2.45681C61.6491 2.78941 </tspan></text>
</g></g><g
       id="g596"><g
         clip-path="url(#clipPath602)"
         id="g598"><text
           id="text606"
           style="font-variant:normal;font-weight:normal;font-size:10.56000042px;font-family:'Courier 10 Pitch';-inkscape-font-specification:CourierNewPSMT;writing-mode:lr-tb;fill:#000000;fill-opacity:1;fill-rule:nonzero;stroke:none"
           transform="matrix(1,0,0,-1,75.024,282.77)"><tspan
             id="tspan604"
             y="0"
             x="0 6.336 12.71424 18.9552 25.291201 31.55328 37.889278 44.15136 50.487358 56.749439 63.085442 69.347519 75.683517 81.945602 88.281601 94.543678 100.87968 107.14176 113.47776 119.73984 126.07584 132.45409 138.69504 145.03104 151.29312 157.62912 163.8912 170.2272 176.48927 182.82529 189.08736 195.42336 201.68544 208.02144 214.28352 220.61952 226.88161 233.21761 239.47968 245.81567 252.19392 258.43488 264.77087 271.03296 277.36896 283.63104 289.96704 296.22913 302.56512 308.82721 315.16321 321.42529 327.76129 334.02335 340.35938 346.62143 352.95743 359.21951 365.55551 371.93375 378.17471 384.51071 390.7728 397.1088 403.37088 409.70688 415.96896 422.30496 428.56705 434.90305 441.16513 447.50113">61.7552 3.25065 61.7552 3.84053C61.7552 4.41787 61.6556 4.87598 61.4563 </tspan></text>
</g></g><g
       id="g608"><g
         clip-path="url(#clipPath614)"
         id="g610"><text
           id="text618"
           style="font-variant:normal;font-weight:normal;font-size:10.56000042px;font-family:'Courier 10 Pitch';-inkscape-font-specification:CourierNewPSMT;writing-mode:lr-tb;fill:#000000;fill-opacity:1;fill-rule:nonzero;stroke:none"
           transform="matrix(1,0,0,-1,75.024,270.89)"><tspan
             id="tspan616"
             y="0"
             x="0 6.336 12.71424 18.9552 25.291201 31.55328 37.889278 44.15136 50.487358 56.749439 63.085442 69.347519 75.683517 81.945602 88.281601 94.543678 100.87968 107.14176 113.47776 119.73984 126.07584 132.45409 138.69504 145.03104 151.29312 157.62912 163.8912 170.2272 176.48927 182.82529 189.08736 195.42336 201.68544 208.02144 214.28352 220.61952 226.88161 233.21761 239.47968 245.81567 252.19392 258.43488 264.77087 271.03296 277.36896 283.63104 289.96704 296.22913 302.56512 308.82721 315.16321 321.42529 327.76129 334.02335 340.35938 346.62143 352.95743 359.21951 365.55551 371.93375 378.17471 384.51071 390.7728 397.1088 403.37088 409.70688 415.96896 422.30496 428.56705 434.90305">5.21484C61.257 5.55372 61.032 5.81101 60.7812 5.98672C60.5306 6.16243 </tspan></text>
</g></g><g
       id="g620"><g
         clip-path="url(#clipPath626)"
         id="g622"><text
           id="text630"
           style="font-variant:normal;font-weight:normal;font-size:10.56000042px;font-family:'Courier 10 Pitch';-inkscape-font-specification:CourierNewPSMT;writing-mode:lr-tb;fill:#000000;fill-opacity:1;fill-rule:nonzero;stroke:none"
           transform="matrix(1,0,0,-1,75.024,258.89)"><tspan
             id="tspan628"
             y="0"
             x="0 6.336 12.71424 18.9552 25.291201 31.55328 37.889278 44.15136 50.487358 56.749439 63.085442 69.347519 75.683517 81.945602 88.281601 94.543678 100.87968 107.14176 113.47776 119.73984 126.07584 132.45409 138.69504 145.03104 151.29312 157.62912 163.8912 170.2272 176.48927 182.82529 189.08736 195.42336 201.68544 208.02144 214.28352 220.61952 226.88161 233.21761 239.47968 245.81567 252.19392">60.2927 6.27539 60.0676 6.32559ZM78.6386 </tspan></text>
</g></g><g
       id="g632"><g
         clip-path="url(#clipPath638)"
         id="g634"><text
           id="text642"
           style="font-variant:normal;font-weight:normal;font-size:10.56000042px;font-family:'Courier 10 Pitch';-inkscape-font-specification:CourierNewPSMT;writing-mode:lr-tb;fill:#000000;fill-opacity:1;fill-rule:nonzero;stroke:none"
           transform="matrix(1,0,0,-1,75.024,247.01)"><tspan
             id="tspan640"
             y="0"
             x="0 6.336 12.71424 18.9552">0V1.</tspan></text>
</g></g><g
       id="g644"><g
         clip-path="url(#clipPath650)"
         id="g646"><text
           id="text654"
           style="font-variant:normal;font-weight:normal;font-size:10.56000042px;font-family:'Courier 10 Pitch';-inkscape-font-specification:CourierNewPSMT;writing-mode:lr-tb;fill:#000000;fill-opacity:1;fill-rule:nonzero;stroke:none"
           transform="matrix(1,0,0,-1,100.34,247.01)"><tspan
             id="tspan652"
             y="0"
             x="0 6.2409601 12.57696 18.839041 25.175039 31.43712 37.773121 44.035198 50.371201 56.633282 62.96928 69.231361 75.56736 81.829437 88.165443 94.427521 100.76352 107.14176 113.38272 119.71872 125.9808 132.3168 138.57887 144.91489 151.17696 157.51295 163.77504 170.11104 176.37312 182.70912 188.97121 195.30721 201.56927 207.90527 214.16736 220.50336 226.88161 233.12256 239.45856 245.72064 252.05664 258.31873 264.65472 270.91681 277.25281 283.51489 289.85089 296.11295 302.44897 308.71103 315.04703 321.30911 327.64511 333.9072 340.24319 346.62143 352.8624 359.19839 365.46048 371.79648 378.05856 384.39456 390.65665 396.99265 403.25473 409.59073 415.85281 422.18881 428.45087">37431H70.7314V6.40089H77.3272V7.7752H70.7314V12.7642H78.6386V14.1384H</tspan></text>
</g></g><g
       id="g656"><g
         clip-path="url(#clipPath662)"
         id="g658"><text
           id="text666"
           style="font-variant:normal;font-weight:normal;font-size:10.56000042px;font-family:'Courier 10 Pitch';-inkscape-font-specification:CourierNewPSMT;writing-mode:lr-tb;fill:#000000;fill-opacity:1;fill-rule:nonzero;stroke:none"
           transform="matrix(1,0,0,-1,75.024,235.13)"><tspan
             id="tspan664"
             y="0"
             x="0 6.336 12.71424 18.9552 25.291201 31.55328 37.889278 44.15136 50.487358 56.749439 63.085442 69.347519 75.683517 81.945602 88.281601 94.543678 100.87968 107.14176 113.47776 119.73984 126.07584 132.45409 138.69504 145.03104 151.29312 157.62912 163.8912 170.2272 176.48927 182.82529 189.08736 195.42336 201.68544 208.02144 214.28352 220.61952 226.88161 233.21761 239.47968 245.81567 252.19392 258.43488 264.77087 271.03296 277.36896 283.63104 289.96704 296.22913 302.56512 308.82721 315.16321 321.42529 327.76129 334.02335 340.35938 346.62143 352.95743 359.21951 365.55551 371.93375 378.17471 384.51071 390.7728 397.1088 403.37088 409.70688 415.96896">69.3043V0H78.6386ZM89.3313 8.11407L94.1529 14.1384H96.0433L90.4307 </tspan></text>
</g></g><g
       id="g668"><g
         clip-path="url(#clipPath674)"
         id="g670"><text
           id="text678"
           style="font-variant:normal;font-weight:normal;font-size:10.56000042px;font-family:'Courier 10 Pitch';-inkscape-font-specification:CourierNewPSMT;writing-mode:lr-tb;fill:#000000;fill-opacity:1;fill-rule:nonzero;stroke:none"
           transform="matrix(1,0,0,-1,75.024,223.25)"><tspan
             id="tspan676"
             y="0"
             x="0 6.336 12.71424 18.9552 25.291201 31.55328 37.889278 44.15136 50.487358 56.749439 63.085442 69.347519 75.683517 81.945602 88.281601 94.543678 100.87968 107.14176 113.47776 119.73984 126.07584 132.45409 138.69504 145.03104 151.29312 157.62912 163.8912 170.2272 176.48927 182.82529 189.08736 195.42336 201.68544 208.02144 214.28352 220.61952 226.88161 233.21761 239.47968 245.81567 252.19392 258.43488 264.77087 271.03296 277.36896 283.63104 289.96704 296.22913 302.56512 308.82721 315.16321 321.42529 327.76129 334.02335 340.35938 346.62143 352.95743 359.21951 365.55551 371.93375 378.17471 384.51071 390.7728 397.1088 403.37088 409.70688 415.96896 422.30496">7.05981L96.0433 0H94.1529L89.3313 6.02437L84.7799 0H82.6392L88.2513 </tspan></text>
</g></g><g
       id="g680"><g
         clip-path="url(#clipPath686)"
         id="g682"><text
           id="text690"
           style="font-variant:normal;font-weight:normal;font-size:10.56000042px;font-family:'Courier 10 Pitch';-inkscape-font-specification:CourierNewPSMT;writing-mode:lr-tb;fill:#000000;fill-opacity:1;fill-rule:nonzero;stroke:none"
           transform="matrix(1,0,0,-1,75.024,211.37)"><tspan
             id="tspan688"
             y="0"
             x="0 6.336 12.71424 18.9552 25.291201 31.55328 37.889278 44.15136 50.487358 56.749439 63.085442 69.347519 75.683517 81.945602 88.281601 94.543678 100.87968 107.14176 113.47776 119.73984 126.07584 132.45409 138.69504 145.03104 151.29312 157.62912 163.8912 170.2272 176.48927 182.82529 189.08736 195.42336 201.68544 208.02144 214.28352 220.61952 226.88161 233.21761 239.47968 245.81567 252.19392 258.43488 264.77087 271.03296 277.36896 283.63104 289.96704 296.22913 302.56512 308.82721 315.16321 321.42529">7.05981L82.6392 14.1384H84.7799L89.3313 8.11407Z&quot; fi</tspan></text>
</g></g><g
       id="g692"><g
         clip-path="url(#clipPath698)"
         id="g694"><text
           id="text702"
           style="font-variant:normal;font-weight:normal;font-size:10.56000042px;font-family:'Courier 10 Pitch';-inkscape-font-specification:CourierNewPSMT;writing-mode:lr-tb;fill:#000000;fill-opacity:1;fill-rule:nonzero;stroke:none"
           transform="matrix(1,0,0,-1,402.91,211.37)"><tspan
             id="tspan700"
             y="0"
             x="0 6.2409601 12.57696 18.839041 25.175039 31.43712 37.773121 44.15136 50.392319 56.728321 62.990398 69.326401 75.588478 81.924477">ll=&quot;#E4E5EA&quot;/&gt;</tspan></text>
</g></g><g
       id="g704"><g
         clip-path="url(#clipPath710)"
         id="g706" /></g><g
       id="g712"><g
         clip-path="url(#clipPath718)"
         id="g714"><text
           id="text722"
           style="font-variant:normal;font-weight:normal;font-size:10.56000042px;font-family:'Courier 10 Pitch';-inkscape-font-specification:CourierNewPSMT;writing-mode:lr-tb;fill:#000000;fill-opacity:1;fill-rule:nonzero;stroke:none"
           transform="matrix(1,0,0,-1,75.024,199.46)"><tspan
             id="tspan720"
             y="0"
             x="0 6.336 12.71424 18.9552 25.291201 31.55328">&lt;/svg&gt;</tspan></text>
</g></g><g
       id="g724"><g
         clip-path="url(#clipPath730)"
         id="g726" /></g></g></svg>