<?xml version="1.0" encoding="UTF-8" standalone="no"?>
<svg
   xmlns:dc="http://purl.org/dc/elements/1.1/"
   xmlns:cc="http://creativecommons.org/ns#"
   xmlns:rdf="http://www.w3.org/1999/02/22-rdf-syntax-ns#"
   xmlns:svg="http://www.w3.org/2000/svg"
   xmlns="http://www.w3.org/2000/svg"
   viewBox="0 0 816 1056"
   height="1056"
   width="816"
   xml:space="preserve"
   id="svg2"
   version="1.1"><metadata
     id="metadata8"><rdf:RDF><cc:Work
         rdf:about=""><dc:format>image/svg+xml</dc:format><dc:type
           rdf:resource="http://purl.org/dc/dcmitype/StillImage" /></cc:Work></rdf:RDF></metadata><defs
     id="defs6"><clipPath
       id="clipPath18"
       clipPathUnits="userSpaceOnUse"><path
         style="clip-rule:evenodd"
         id="path16"
         d="M 9.12e-6,0 H 612.00001 V 792 H 9.12e-6 Z" /></clipPath><clipPath
       id="clipPath30"
       clipPathUnits="userSpaceOnUse"><path
         style="clip-rule:evenodd"
         id="path28"
         d="M 9.12e-6,0 H 612.00001 V 792 H 9.12e-6 Z" /></clipPath><clipPath
       id="clipPath42"
       clipPathUnits="userSpaceOnUse"><path
         style="clip-rule:evenodd"
         id="path40"
         d="M 9.12e-6,0 H 612.00001 V 792 H 9.12e-6 Z" /></clipPath><clipPath
       id="clipPath50"
       clipPathUnits="userSpaceOnUse"><path
         style="clip-rule:evenodd"
         id="path48"
         d="M 9.12e-6,0 H 612.00001 V 792 H 9.12e-6 Z" /></clipPath><clipPath
       id="clipPath62"
       clipPathUnits="userSpaceOnUse"><path
         style="clip-rule:evenodd"
         id="path60"
         d="M 9.12e-6,0 H 612.00001 V 792 H 9.12e-6 Z" /></clipPath><clipPath
       id="clipPath74"
       clipPathUnits="userSpaceOnUse"><path
         style="clip-rule:evenodd"
         id="path72"
         d="M 9.12e-6,0 H 612.00001 V 792 H 9.12e-6 Z" /></clipPath><clipPath
       id="clipPath86"
       clipPathUnits="userSpaceOnUse"><path
         style="clip-rule:evenodd"
         id="path84"
         d="M 9.12e-6,0 H 612.00001 V 792 H 9.12e-6 Z" /></clipPath><clipPath
       id="clipPath98"
       clipPathUnits="userSpaceOnUse"><path
         style="clip-rule:evenodd"
         id="path96"
         d="M 9.12e-6,0 H 612.00001 V 792 H 9.12e-6 Z" /></clipPath><clipPath
       id="clipPath110"
       clipPathUnits="userSpaceOnUse"><path
         style="clip-rule:evenodd"
         id="path108"
         d="M 9.12e-6,0 H 612.00001 V 792 H 9.12e-6 Z" /></clipPath><clipPath
       id="clipPath122"
       clipPathUnits="userSpaceOnUse"><path
         style="clip-rule:evenodd"
         id="path120"
         d="M 9.12e-6,0 H 612.00001 V 792 H 9.12e-6 Z" /></clipPath><clipPath
       id="clipPath134"
       clipPathUnits="userSpaceOnUse"><path
         style="clip-rule:evenodd"
         id="path132"
         d="M 9.12e-6,0 H 612.00001 V 792 H 9.12e-6 Z" /></clipPath><clipPath
       id="clipPath146"
       clipPathUnits="userSpaceOnUse"><path
         style="clip-rule:evenodd"
         id="path144"
         d="M 9.12e-6,0 H 612.00001 V 792 H 9.12e-6 Z" /></clipPath><clipPath
       id="clipPath158"
       clipPathUnits="userSpaceOnUse"><path
         style="clip-rule:evenodd"
         id="path156"
         d="M 9.12e-6,0 H 612.00001 V 792 H 9.12e-6 Z" /></clipPath><clipPath
       id="clipPath170"
       clipPathUnits="userSpaceOnUse"><path
         style="clip-rule:evenodd"
         id="path168"
         d="M 9.12e-6,0 H 612.00001 V 792 H 9.12e-6 Z" /></clipPath><clipPath
       id="clipPath182"
       clipPathUnits="userSpaceOnUse"><path
         style="clip-rule:evenodd"
         id="path180"
         d="M 9.12e-6,0 H 612.00001 V 792 H 9.12e-6 Z" /></clipPath><clipPath
       id="clipPath194"
       clipPathUnits="userSpaceOnUse"><path
         style="clip-rule:evenodd"
         id="path192"
         d="M 9.12e-6,0 H 612.00001 V 792 H 9.12e-6 Z" /></clipPath><clipPath
       id="clipPath206"
       clipPathUnits="userSpaceOnUse"><path
         style="clip-rule:evenodd"
         id="path204"
         d="M 9.12e-6,0 H 612.00001 V 792 H 9.12e-6 Z" /></clipPath><clipPath
       id="clipPath218"
       clipPathUnits="userSpaceOnUse"><path
         style="clip-rule:evenodd"
         id="path216"
         d="M 9.12e-6,0 H 612.00001 V 792 H 9.12e-6 Z" /></clipPath><clipPath
       id="clipPath230"
       clipPathUnits="userSpaceOnUse"><path
         style="clip-rule:evenodd"
         id="path228"
         d="M 9.12e-6,0 H 612.00001 V 792 H 9.12e-6 Z" /></clipPath><clipPath
       id="clipPath242"
       clipPathUnits="userSpaceOnUse"><path
         style="clip-rule:evenodd"
         id="path240"
         d="M 9.12e-6,0 H 612.00001 V 792 H 9.12e-6 Z" /></clipPath><clipPath
       id="clipPath254"
       clipPathUnits="userSpaceOnUse"><path
         style="clip-rule:evenodd"
         id="path252"
         d="M 9.12e-6,0 H 612.00001 V 792 H 9.12e-6 Z" /></clipPath><clipPath
       id="clipPath266"
       clipPathUnits="userSpaceOnUse"><path
         style="clip-rule:evenodd"
         id="path264"
         d="M 9.12e-6,0 H 612.00001 V 792 H 9.12e-6 Z" /></clipPath><clipPath
       id="clipPath278"
       clipPathUnits="userSpaceOnUse"><path
         style="clip-rule:evenodd"
         id="path276"
         d="M 9.12e-6,0 H 612.00001 V 792 H 9.12e-6 Z" /></clipPath><clipPath
       id="clipPath286"
       clipPathUnits="userSpaceOnUse"><path
         style="clip-rule:evenodd"
         id="path284"
         d="M 9.12e-6,0 H 612.00001 V 792 H 9.12e-6 Z" /></clipPath><clipPath
       id="clipPath298"
       clipPathUnits="userSpaceOnUse"><path
         style="clip-rule:evenodd"
         id="path296"
         d="M 9.12e-6,0 H 612.00001 V 792 H 9.12e-6 Z" /></clipPath></defs><g
     transform="matrix(1.3333333,0,0,-1.3333333,0,1056)"
     id="g10"><g
       id="g12"><g
         clip-path="url(#clipPath18)"
         id="g14"><text
           id="text22"
           style="font-variant:normal;font-weight:normal;font-size:10.56000042px;font-family:'Courier 10 Pitch';-inkscape-font-specification:CourierNewPSMT;writing-mode:lr-tb;fill:#000000;fill-opacity:1;fill-rule:nonzero;stroke:none"
           transform="matrix(1,0,0,-1,75.024,710.98)"><tspan
             id="tspan20"
             y="0"
             x="0 6.336 12.71424 18.9552 25.291201 31.55328 37.889278 44.15136 50.487358 56.749439 63.085442 69.347519 75.683517 81.945602 88.281601 94.543678 100.87968 107.14176 113.47776 119.73984 126.07584 132.45409 138.69504 145.03104 151.29312 157.62912 163.8912 170.2272 176.48927 182.82529 189.08736 195.42336 201.68544 208.02144 214.28352 220.61952 226.88161 233.21761 239.47968 245.81567 252.19392 258.43488 264.77087 271.03296 277.36896 283.63104 289.96704 296.22913 302.56512 308.82721 315.16321 321.42529 327.76129 334.02335 340.35938 346.62143 352.95743 359.21951 365.55551 371.93375">&lt;svg width=&quot;35&quot; height=&quot;24&quot; viewBox=&quot;0 0 35 24&quot; fill=&quot;none&quot; </tspan></text>
</g></g><g
       id="g24"><g
         clip-path="url(#clipPath30)"
         id="g26"><text
           id="text34"
           style="font-variant:normal;font-weight:normal;font-size:10.56000042px;font-family:'Courier 10 Pitch';-inkscape-font-specification:CourierNewPSMT;writing-mode:lr-tb;fill:#000000;fill-opacity:1;fill-rule:nonzero;stroke:none"
           transform="matrix(1,0,0,-1,75.024,699.1)"><tspan
             id="tspan32"
             y="0"
             x="0 6.336 12.71424 18.9552 25.291201 31.55328 37.889278 44.15136 50.487358 56.749439 63.085442 69.347519 75.683517 81.945602 88.281601 94.543678 100.87968 107.14176 113.47776 119.73984 126.07584 132.45409 138.69504 145.03104 151.29312 157.62912 163.8912 170.2272 176.48927 182.82529 189.08736 195.42336 201.68544 208.02144 214.28352">xmlns=&quot;http://www.w3.org/2000/svg&quot;&gt;</tspan></text>
</g></g><g
       id="g36"><g
         clip-path="url(#clipPath42)"
         id="g38" /></g><g
       id="g44"><g
         clip-path="url(#clipPath50)"
         id="g46"><text
           id="text54"
           style="font-variant:normal;font-weight:normal;font-size:10.56000042px;font-family:'Courier 10 Pitch';-inkscape-font-specification:CourierNewPSMT;writing-mode:lr-tb;fill:#000000;fill-opacity:1;fill-rule:nonzero;stroke:none"
           transform="matrix(1,0,0,-1,75.024,687.22)"><tspan
             id="tspan52"
             y="0"
             x="0 6.336 12.71424 18.9552 25.291201 31.55328 37.889278 44.15136 50.487358 56.749439">&lt;path fill</tspan></text>
</g></g><g
       id="g56"><g
         clip-path="url(#clipPath62)"
         id="g58"><text
           id="text66"
           style="font-variant:normal;font-weight:normal;font-size:10.56000042px;font-family:'Courier 10 Pitch';-inkscape-font-specification:CourierNewPSMT;writing-mode:lr-tb;fill:#000000;fill-opacity:1;fill-rule:nonzero;stroke:none"
           transform="matrix(1,0,0,-1,138.14,687.22)"><tspan
             id="tspan64"
             y="0"
             x="0">-</tspan></text>
</g></g><g
       id="g68"><g
         clip-path="url(#clipPath74)"
         id="g70"><text
           id="text78"
           style="font-variant:normal;font-weight:normal;font-size:10.56000042px;font-family:'Courier 10 Pitch';-inkscape-font-specification:CourierNewPSMT;writing-mode:lr-tb;fill:#000000;fill-opacity:1;fill-rule:nonzero;stroke:none"
           transform="matrix(1,0,0,-1,144.38,687.22)"><tspan
             id="tspan76"
             y="0"
             x="0 6.336 12.59808 18.93408 25.196159 31.53216 37.794239 44.130241 50.392319 56.728321 63.10656 69.347519 75.683517 81.945602 88.281601 94.543678 100.87968 107.14176 113.47776">rule=&quot;evenodd&quot; clip</tspan></text>
</g></g><g
       id="g80"><g
         clip-path="url(#clipPath86)"
         id="g82"><text
           id="text90"
           style="font-variant:normal;font-weight:normal;font-size:10.56000042px;font-family:'Courier 10 Pitch';-inkscape-font-specification:CourierNewPSMT;writing-mode:lr-tb;fill:#000000;fill-opacity:1;fill-rule:nonzero;stroke:none"
           transform="matrix(1,0,0,-1,264.17,687.22)"><tspan
             id="tspan88"
             y="0"
             x="0">-</tspan></text>
</g></g><g
       id="g92"><g
         clip-path="url(#clipPath98)"
         id="g94"><text
           id="text102"
           style="font-variant:normal;font-weight:normal;font-size:10.56000042px;font-family:'Courier 10 Pitch';-inkscape-font-specification:CourierNewPSMT;writing-mode:lr-tb;fill:#000000;fill-opacity:1;fill-rule:nonzero;stroke:none"
           transform="matrix(1,0,0,-1,270.53,687.22)"><tspan
             id="tspan100"
             y="0"
             x="0 6.2409601 12.57696 18.839041 25.175039 31.43712 37.773121 44.035198 50.371201 56.749439 62.990398 69.326401 75.588478 81.924477 88.186562 94.52256 100.78464 107.12064 113.38272 119.71872 125.9808 132.3168 138.57887 144.91489 151.17696 157.51295 163.77504">rule=&quot;evenodd&quot; d=&quot;M24.5946 </tspan></text>
</g></g><g
       id="g104"><g
         clip-path="url(#clipPath110)"
         id="g106"><text
           id="text114"
           style="font-variant:normal;font-weight:normal;font-size:10.56000042px;font-family:'Courier 10 Pitch';-inkscape-font-specification:CourierNewPSMT;writing-mode:lr-tb;fill:#000000;fill-opacity:1;fill-rule:nonzero;stroke:none"
           transform="matrix(1,0,0,-1,75.024,675.34)"><tspan
             id="tspan112"
             y="0"
             x="0 6.336 12.71424 18.9552 25.291201 31.55328 37.889278 44.15136 50.487358 56.749439 63.085442 69.347519 75.683517 81.945602 88.281601 94.543678 100.87968 107.14176 113.47776 119.73984 126.07584 132.45409 138.69504 145.03104 151.29312 157.62912 163.8912 170.2272 176.48927 182.82529 189.08736 195.42336 201.68544 208.02144 214.28352 220.61952 226.88161 233.21761 239.47968 245.81567 252.19392 258.43488 264.77087 271.03296 277.36896 283.63104 289.96704 296.22913 302.56512 308.82721 315.16321 321.42529 327.76129 334.02335 340.35938 346.62143 352.95743 359.21951 365.55551 371.93375 378.17471 384.51071 390.7728 397.1088 403.37088 409.70688 415.96896 422.30496 428.56705 434.90305 441.16513 447.50113 453.76321">0H0V12.7841H1.3208V1.28886H23.2738V5.52746H21.0842V5.53671H21.0684C21.009</tspan></text>
</g></g><g
       id="g116"><g
         clip-path="url(#clipPath122)"
         id="g118"><text
           id="text126"
           style="font-variant:normal;font-weight:normal;font-size:10.56000042px;font-family:'Courier 10 Pitch';-inkscape-font-specification:CourierNewPSMT;writing-mode:lr-tb;fill:#000000;fill-opacity:1;fill-rule:nonzero;stroke:none"
           transform="matrix(1,0,0,-1,75.024,663.46)"><tspan
             id="tspan124"
             y="0"
             x="0 6.336 12.71424 18.9552 25.291201 31.55328 37.889278 44.15136 50.487358 56.749439 63.085442 69.347519 75.683517 81.945602 88.281601 94.543678 100.87968 107.14176 113.47776 119.73984 126.07584 132.45409 138.69504 145.03104 151.29312 157.62912 163.8912 170.2272">6 5.65146 20.8861 5.90965 20</tspan></text>
</g></g><g
       id="g128"><g
         clip-path="url(#clipPath134)"
         id="g130"><text
           id="text138"
           style="font-variant:normal;font-weight:normal;font-size:10.56000042px;font-family:'Courier 10 Pitch';-inkscape-font-specification:CourierNewPSMT;writing-mode:lr-tb;fill:#000000;fill-opacity:1;fill-rule:nonzero;stroke:none"
           transform="matrix(1,0,0,-1,251.57,663.46)"><tspan
             id="tspan136"
             y="0"
             x="0 6.336 12.59808 18.93408 25.196159 31.53216 37.794239 44.130241 50.392319 56.728321 62.990398 69.326401 75.704643 81.945602 88.281601 94.543678 100.87968 107.14176 113.47776 119.73984 126.07584 132.33792 138.67392 144.936 151.272 157.53407 163.87009 170.13216 176.46815 182.73024 189.06624 195.44447 201.68544 208.02144 214.28352 220.61952 226.88161 233.21761 239.47968 245.81567 252.07776 258.41376 264.67584 271.01184">.698 6.31127C20.5098 6.7129 20.2776 7.20058 </tspan></text>
</g></g><g
       id="g140"><g
         clip-path="url(#clipPath146)"
         id="g142"><text
           id="text150"
           style="font-variant:normal;font-weight:normal;font-size:10.56000042px;font-family:'Courier 10 Pitch';-inkscape-font-specification:CourierNewPSMT;writing-mode:lr-tb;fill:#000000;fill-opacity:1;fill-rule:nonzero;stroke:none"
           transform="matrix(1,0,0,-1,75.024,651.46)"><tspan
             id="tspan148"
             y="0"
             x="0 6.336 12.71424 18.9552 25.291201 31.55328 37.889278 44.15136 50.487358 56.749439 63.085442 69.347519 75.683517 81.945602 88.281601 94.543678 100.87968 107.14176 113.47776 119.73984 126.07584 132.45409 138.69504 145.03104 151.29312 157.62912 163.8912 170.2272 176.48927 182.82529 189.08736 195.42336 201.68544 208.02144 214.28352 220.61952 226.88161 233.21761 239.47968 245.81567 252.19392 258.43488 264.77087 271.03296 277.36896 283.63104 289.96704 296.22913 302.56512 308.82721 315.16321 321.42529 327.76129 334.02335 340.35938 346.62143 352.95743 359.21951 365.55551 371.93375 378.17471 384.51071 390.7728 397.1088 403.37088 409.70688 415.96896 422.30496 428.56705 434.90305 441.16513 447.50113">20.0012 7.77434C19.7249 8.34809 19.4162 8.98207 19.0752 9.67634C18.7342 </tspan></text>
</g></g><g
       id="g152"><g
         clip-path="url(#clipPath158)"
         id="g154"><text
           id="text162"
           style="font-variant:normal;font-weight:normal;font-size:10.56000042px;font-family:'Courier 10 Pitch';-inkscape-font-specification:CourierNewPSMT;writing-mode:lr-tb;fill:#000000;fill-opacity:1;fill-rule:nonzero;stroke:none"
           transform="matrix(1,0,0,-1,75.024,639.58)"><tspan
             id="tspan160"
             y="0"
             x="0 6.336 12.71424 18.9552 25.291201 31.55328 37.889278 44.15136 50.487358 56.749439 63.085442 69.347519 75.683517 81.945602 88.281601 94.543678 100.87968 107.14176 113.47776 119.73984 126.07584 132.45409 138.69504 145.03104 151.29312 157.62912 163.8912 170.2272 176.48927 182.82529 189.08736 195.42336 201.68544 208.02144 214.28352 220.61952 226.88161 233.21761 239.47968 245.81567 252.19392 258.43488 264.77087 271.03296 277.36896 283.63104 289.96704 296.22913 302.56512 308.82721 315.16321 321.42529 327.76129 334.02335 340.35938 346.62143 352.95743 359.21951 365.55551 371.93375 378.17471 384.51071 390.7728 397.1088 403.37088 409.70688 415.96896 422.30496 428.56705 434.90305 441.16513 447.50113">10.3706 18.3901 11.0734 18.0433 11.7848C17.6964 12.4963 17.3524 13.1876 </tspan></text>
</g></g><g
       id="g164"><g
         clip-path="url(#clipPath170)"
         id="g166"><text
           id="text174"
           style="font-variant:normal;font-weight:normal;font-size:10.56000042px;font-family:'Courier 10 Pitch';-inkscape-font-specification:CourierNewPSMT;writing-mode:lr-tb;fill:#000000;fill-opacity:1;fill-rule:nonzero;stroke:none"
           transform="matrix(1,0,0,-1,75.024,627.7)"><tspan
             id="tspan172"
             y="0"
             x="0 6.336 12.71424 18.9552 25.291201 31.55328 37.889278 44.15136 50.487358 56.749439 63.085442 69.347519 75.683517 81.945602 88.281601 94.543678 100.87968 107.14176 113.47776 119.73984 126.07584 132.45409 138.69504 145.03104 151.29312 157.62912 163.8912 170.2272 176.48927 182.82529 189.08736 195.42336 201.68544 208.02144 214.28352 220.61952 226.88161 233.21761 239.47968 245.81567 252.19392 258.43488 264.77087 271.03296 277.36896 283.63104 289.96704 296.22913 302.56512 308.82721 315.16321 321.42529 327.76129 334.02335 340.35938 346.62143 352.95743 359.21951 365.55551 371.93375 378.17471 384.51071 390.7728 397.1088 403.37088 409.70688 415.96896 422.30496">17.0114 13.859C16.6704 14.5302 16.3647 15.1241 16.0941 15.6404L10.71</tspan></text>
</g></g><g
       id="g176"><g
         clip-path="url(#clipPath182)"
         id="g178"><text
           id="text186"
           style="font-variant:normal;font-weight:normal;font-size:10.56000042px;font-family:'Courier 10 Pitch';-inkscape-font-specification:CourierNewPSMT;writing-mode:lr-tb;fill:#000000;fill-opacity:1;fill-rule:nonzero;stroke:none"
           transform="matrix(1,0,0,-1,503.74,627.7)"><tspan
             id="tspan184"
             y="0"
             x="0 6.336 12.59808">43 </tspan></text>
</g></g><g
       id="g188"><g
         clip-path="url(#clipPath194)"
         id="g190"><text
           id="text198"
           style="font-variant:normal;font-weight:normal;font-size:10.56000042px;font-family:'Courier 10 Pitch';-inkscape-font-specification:CourierNewPSMT;writing-mode:lr-tb;fill:#000000;fill-opacity:1;fill-rule:nonzero;stroke:none"
           transform="matrix(1,0,0,-1,75.024,615.82)"><tspan
             id="tspan196"
             y="0"
             x="0 6.336 12.71424 18.9552 25.291201 31.55328 37.889278 44.15136 50.487358 56.749439 63.085442 69.347519 75.683517 81.945602 88.281601 94.543678 100.87968 107.14176 113.47776 119.73984 126.07584 132.45409 138.69504 145.03104 151.29312 157.62912 163.8912 170.2272 176.48927 182.82529 189.08736 195.42336 201.68544 208.02144 214.28352 220.61952 226.88161 233.21761 239.47968">5.53671H9.09151L16.0941 18.446L22.1009 </tspan></text>
</g></g><g
       id="g200"><g
         clip-path="url(#clipPath206)"
         id="g202"><text
           id="text210"
           style="font-variant:normal;font-weight:normal;font-size:10.56000042px;font-family:'Courier 10 Pitch';-inkscape-font-specification:CourierNewPSMT;writing-mode:lr-tb;fill:#000000;fill-opacity:1;fill-rule:nonzero;stroke:none"
           transform="matrix(1,0,0,-1,75.024,603.94)"><tspan
             id="tspan208"
             y="0"
             x="0 6.336 12.71424 18.9552 25.291201 31.55328 37.889278 44.15136 50.487358 56.749439 63.085442 69.347519 75.683517 81.945602 88.281601 94.543678 100.87968 107.14176 113.47776 119.73984 126.07584 132.45409 138.69504 145.03104 151.29312 157.62912 163.8912 170.2272 176.48927 182.82529 189.08736 195.42336 201.68544 208.02144 214.28352 220.61952">6.7853H24.5927V6.77176H24.5946V0ZM0 </tspan></text>
</g></g><g
       id="g212"><g
         clip-path="url(#clipPath218)"
         id="g214"><text
           id="text222"
           style="font-variant:normal;font-weight:normal;font-size:10.56000042px;font-family:'Courier 10 Pitch';-inkscape-font-specification:CourierNewPSMT;writing-mode:lr-tb;fill:#000000;fill-opacity:1;fill-rule:nonzero;stroke:none"
           transform="matrix(1,0,0,-1,75.024,592.06)"><tspan
             id="tspan220"
             y="0"
             x="0 6.336 12.71424 18.9552 25.291201 31.55328 37.889278 44.15136 50.487358 56.749439 63.085442 69.347519 75.683517 81.945602 88.281601 94.543678 100.87968 107.14176 113.47776 119.73984 126.07584 132.45409 138.69504 145.03104 151.29312 157.62912 163.8912 170.2272 176.48927 182.82529 189.08736 195.42336 201.68544 208.02144 214.28352 220.61952 226.88161 233.21761 239.47968 245.81567 252.19392 258.43488 264.77087 271.03296 277.36896 283.63104 289.96704 296.22913 302.56512 308.82721 315.16321 321.42529 327.76129 334.02335 340.35938 346.62143 352.95743 359.21951 365.55551 371.93375 378.17471 384.51071 390.7728 397.1088 403.37088 409.70688">17.1961H0.00609518V17.1819H8.47042L2.42401 5.53671H4.0997L9.84995 </tspan></text>
</g></g><g
       id="g224"><g
         clip-path="url(#clipPath230)"
         id="g226"><text
           id="text234"
           style="font-variant:normal;font-weight:normal;font-size:10.56000042px;font-family:'Courier 10 Pitch';-inkscape-font-specification:CourierNewPSMT;writing-mode:lr-tb;fill:#000000;fill-opacity:1;fill-rule:nonzero;stroke:none"
           transform="matrix(1,0,0,-1,75.024,580.18)"><tspan
             id="tspan232"
             y="0"
             x="0 6.336 12.71424 18.9552 25.291201 31.55328 37.889278 44.15136 50.487358 56.749439 63.085442 69.347519 75.683517 81.945602 88.281601 94.543678 100.87968 107.14176 113.47776 119.73984 126.07584 132.45409 138.69504 145.03104 151.29312 157.62912 163.8912 170.2272 176.48927">17.0175L9.1268 18.446L9.1157 </tspan></text>
</g></g><g
       id="g236"><g
         clip-path="url(#clipPath242)"
         id="g238"><text
           id="text246"
           style="font-variant:normal;font-weight:normal;font-size:10.56000042px;font-family:'Courier 10 Pitch';-inkscape-font-specification:CourierNewPSMT;writing-mode:lr-tb;fill:#000000;fill-opacity:1;fill-rule:nonzero;stroke:none"
           transform="matrix(1,0,0,-1,75.024,568.3)"><tspan
             id="tspan244"
             y="0"
             x="0 6.336 12.71424 18.9552 25.291201 31.55328 37.889278 44.15136 50.487358 56.749439 63.085442 69.347519 75.683517 81.945602 88.281601 94.543678 100.87968 107.14176 113.47776 119.73984 126.07584 132.45409 138.69504 145.03104 151.29312 157.62912 163.8912 170.2272 176.48927 182.82529 189.08736 195.42336 201.68544 208.02144 214.28352 220.61952 226.88161 233.21761 239.47968 245.81567 252.19392 258.43488 264.77087 271.03296 277.36896 283.63104 289.96704 296.22913 302.56512 308.82721 315.16321 321.42529 327.76129 334.02335 340.35938 346.62143 352.95743 359.21951 365.55551 371.93375 378.17471 384.51071 390.7728 397.1088 403.37088 409.70688 415.96896 422.30496 428.56705 434.90305 441.16513 447.50113 453.76321">18.4247V18.4398H1.3208V22.7111H23.2738V11.1838H24.5946V24H0V17.1961ZM33.6</tspan></text>
</g></g><g
       id="g248"><g
         clip-path="url(#clipPath254)"
         id="g250"><text
           id="text258"
           style="font-variant:normal;font-weight:normal;font-size:10.56000042px;font-family:'Courier 10 Pitch';-inkscape-font-specification:CourierNewPSMT;writing-mode:lr-tb;fill:#000000;fill-opacity:1;fill-rule:nonzero;stroke:none"
           transform="matrix(1,0,0,-1,75.024,556.3)"><tspan
             id="tspan256"
             y="0"
             x="0 6.336 12.71424 18.9552 25.291201 31.55328 37.889278 44.15136 50.487358 56.749439">949 24V0H3</tspan></text>
</g></g><g
       id="g260"><g
         clip-path="url(#clipPath266)"
         id="g262"><text
           id="text270"
           style="font-variant:normal;font-weight:normal;font-size:10.56000042px;font-family:'Courier 10 Pitch';-inkscape-font-specification:CourierNewPSMT;writing-mode:lr-tb;fill:#000000;fill-opacity:1;fill-rule:nonzero;stroke:none"
           transform="matrix(1,0,0,-1,138.14,556.3)"><tspan
             id="tspan268"
             y="0"
             x="0 6.2409601 12.57696 18.839041 25.175039 31.43712 37.773121 44.035198 50.371201 56.633282 62.96928 69.347519 75.588478 81.924477 88.186562 94.52256 100.78464 107.12064 113.38272 119.71872 125.9808 132.3168 138.57887 144.91489 151.17696 157.51295 163.77504 170.11104 176.37312 182.70912 189.08736 195.32832 201.66432 207.92641 214.26241 220.52448">5.0517V24H33.6949Z&quot; fill=&quot;#E4E5EA&quot;/&gt;</tspan></text>
</g></g><g
       id="g272"><g
         clip-path="url(#clipPath278)"
         id="g274" /></g><g
       id="g280"><g
         clip-path="url(#clipPath286)"
         id="g282"><text
           id="text290"
           style="font-variant:normal;font-weight:normal;font-size:10.56000042px;font-family:'Courier 10 Pitch';-inkscape-font-specification:CourierNewPSMT;writing-mode:lr-tb;fill:#000000;fill-opacity:1;fill-rule:nonzero;stroke:none"
           transform="matrix(1,0,0,-1,75.024,544.39)"><tspan
             id="tspan288"
             y="0"
             x="0 6.336 12.71424 18.9552 25.291201 31.55328">&lt;/svg&gt;</tspan></text>
</g></g><g
       id="g292"><g
         clip-path="url(#clipPath298)"
         id="g294" /></g></g></svg>